<svg width="592" height="387" viewBox="0 0 592 387" fill="none" xmlns="http://www.w3.org/2000/svg">
<g clip-path="url(#clip0_558_1151)">
<mask id="mask0_558_1151" style="mask-type:alpha" maskUnits="userSpaceOnUse" x="20" y="28" width="576" height="312">
<rect x="20.563" y="28.1851" width="574.684" height="311.118" fill="#D9D9D9"/>
</mask>
<g mask="url(#mask0_558_1151)">
<path d="M166.296 341.091C166.296 341.091 74.7931 342.794 66.9414 264.87C59.0897 186.947 121.702 157.146 166.296 163.992C197.099 168.724 259.611 151.106 276.421 115.366C323.23 16.5016 453.79 22.6428 482.278 91.0021C507.544 151.609 507.242 143.656 542.071 157.247C576.901 170.939 580.827 282.69 556.567 336.954C489.752 341.091 209.104 341.091 166.296 341.091Z" fill="#E8E8EF"/>
<path d="M502.914 51.5465C502.914 51.5465 490.834 69.8696 504.222 96.2468C517.61 122.523 552.742 128.262 569.251 105.509C585.759 82.7561 579.418 49.4323 566.935 44.4991C554.453 39.566 516.604 26.7801 502.914 51.5465Z" fill="#E8E8EF"/>
<path d="M162.571 113.966C156.431 115.073 145.358 114.066 140.727 97.3542C136.197 80.7425 155.927 72.0844 168.409 73.8966C180.992 75.8094 196.897 107.724 162.571 113.966Z" fill="#E8E8EF"/>
<path d="M47.2113 241.019C47.2113 241.019 57.9822 244.342 55.2643 261.658C52.5464 278.974 33.4204 278.169 26.7766 270.115C20.0322 262.061 26.5753 237.194 47.2113 241.019Z" fill="#E8E8EF"/>
<path d="M516.705 340.689C529.086 333.138 541.77 325.889 554.554 318.943C558.983 316.527 563.312 314.211 567.741 311.996C568.144 311.795 567.741 311.09 567.338 311.392C553.145 318.741 539.153 326.494 525.362 334.648C522.342 336.46 519.322 338.273 516.302 340.085C515.899 340.286 516.302 340.89 516.705 340.689Z" fill="#C4C1D2"/>
<path d="M559.587 333.34C554.654 330.923 549.621 328.406 544.689 325.99C543.984 325.688 543.279 325.285 542.575 324.983C542.172 324.782 541.769 325.386 542.172 325.587C547.105 328.004 552.138 330.521 557.07 332.937C557.775 333.239 558.48 333.642 559.184 333.944C559.587 334.145 559.99 333.541 559.587 333.34Z" fill="#C4C1D2"/>
<path d="M558.48 322.668C557.776 323.775 558.279 325.486 559.588 326.292C560.896 327.097 562.607 326.896 563.312 325.688C564.017 324.58 563.513 322.869 562.205 322.063C560.896 321.258 559.185 321.56 558.48 322.668Z" fill="#C4C1D2"/>
<path d="M564.922 300.519C564.822 302.129 566.13 303.438 567.64 303.438C569.251 303.539 570.56 302.23 570.56 300.72C570.66 299.109 569.352 297.8 567.842 297.8C566.332 297.7 565.023 298.908 564.922 300.519Z" fill="#C4C1D2"/>
<path d="M573.177 297.096C572.774 297.7 572.975 298.505 573.579 298.807C574.183 299.21 574.989 299.008 575.291 298.404C575.693 297.8 575.492 296.995 574.888 296.693C574.284 296.29 573.479 296.492 573.177 297.096Z" fill="#C4C1D2"/>
<path d="M518.718 317.835C520.731 317.533 521.738 317.533 523.348 317.634C532.811 318.137 531.2 308.774 541.166 301.123C551.131 293.471 554.151 300.821 560.392 298.807C566.634 296.894 571.264 284.008 582.236 290.854C593.209 297.7 594.215 310.184 586.162 319.245C578.109 328.305 570.962 320.553 568.546 328.507C566.231 336.46 565.023 339.984 554.957 342.199C544.79 344.414 537.441 341.695 532.307 355.488C527.677 367.771 519.423 370.69 511.168 369.784L493.753 359.414" stroke="#C4C1D2" stroke-miterlimit="10"/>
<path d="M520.63 238.603C520.831 221.085 539.353 197.829 558.681 209.608C578.109 221.488 571.767 241.925 561.097 253.201C552.037 262.765 530.495 266.994 535.73 274.746C540.964 282.498 542.675 293.774 525.059 301.123C507.443 308.372 527.979 320.956 516.1 341.192C508.148 354.784 498.585 359.918 489.827 359.616L466.977 341.494C464.762 335.957 463.856 329.614 464.863 323.071C467.782 304.546 487.411 303.841 490.23 295.183C493.149 286.525 487.009 271.524 494.76 258.537C505.027 241.221 520.529 247.362 520.63 238.603Z" stroke="#C4C1D2" stroke-miterlimit="10"/>
<path d="M539.756 230.448C536.535 236.388 533.314 242.328 530.193 248.268C524.254 259.443 518.416 270.618 512.778 281.995C508.551 290.653 504.524 299.311 500.498 308.07C496.169 317.533 491.841 326.896 487.613 336.36C486.103 339.783 484.492 343.206 482.982 346.629C482.278 348.34 481.372 349.951 480.667 351.663C480.667 351.763 480.566 351.864 480.566 351.864C480.365 352.267 481.07 352.669 481.17 352.267C483.083 348.038 484.895 343.911 486.807 339.682C490.935 330.521 495.162 321.359 499.29 312.197C503.517 303.137 507.645 293.975 512.074 285.015C517.308 274.142 522.945 263.369 528.583 252.597C532.408 245.449 536.334 238.402 540.058 231.153C540.159 231.052 540.159 230.952 540.26 230.75C540.662 230.448 539.958 230.046 539.756 230.448Z" fill="#C4C1D2"/>
<path d="M505.732 256.322C506.738 266.088 507.745 275.954 508.651 285.72C508.752 287.129 508.953 288.438 509.054 289.847C509.054 290.351 509.859 290.351 509.859 289.847C508.852 280.082 507.846 270.215 506.94 260.45C506.839 259.04 506.638 257.732 506.537 256.322C506.436 255.919 505.631 255.919 505.732 256.322Z" fill="#C4C1D2"/>
<path d="M512.376 318.943C505.933 322.567 499.491 326.192 492.948 329.917C492.042 330.42 491.136 330.923 490.23 331.427C489.827 331.628 490.23 332.333 490.632 332.031C497.075 328.406 503.517 324.782 510.06 321.057C510.966 320.554 511.872 320.05 512.778 319.547C513.181 319.346 512.778 318.641 512.376 318.943Z" fill="#C4C1D2"/>
<path d="M498.686 264.578C494.961 265.484 495.565 270.316 499.39 270.417C503.014 269.511 502.511 264.678 498.686 264.578Z" fill="#C4C1D2"/>
<path d="M555.158 229.039C546.199 231.354 547.608 242.932 556.768 243.133C565.727 240.918 564.419 229.24 555.158 229.039Z" fill="#C4C1D2"/>
<path d="M553.748 244.744C549.923 245.751 550.527 250.684 554.453 250.684C558.177 249.778 557.674 244.845 553.748 244.744Z" fill="#C4C1D2"/>
<path d="M543.581 236.388C538.649 237.596 539.454 244.04 544.487 244.14C549.42 242.831 548.715 236.489 543.581 236.388Z" fill="#C4C1D2"/>
<path d="M468.789 350.555C464.46 347.333 460.736 342.803 458.521 337.266C452.079 321.56 466.876 311.895 465.064 303.841C463.252 295.787 451.475 287.129 451.374 273.437C451.173 255.315 465.97 252.698 461.944 245.952C453.891 232.361 457.313 205.682 477.748 205.783C498.384 205.883 503.014 224.609 499.994 238.301C497.478 249.879 483.486 263.571 491.237 267.195" stroke="#C4C1D2" stroke-miterlimit="10"/>
<path d="M472.916 230.649C473.319 240.113 473.923 249.577 474.527 259.04C475.433 273.034 476.741 286.928 477.849 300.821C477.949 302.13 478.151 303.438 478.151 304.848C478.151 305.351 478.956 305.351 478.956 304.848C478.956 303.841 478.855 302.935 478.754 301.928C478.251 296.089 477.748 290.351 477.245 284.511C475.936 270.115 475.03 255.617 474.325 241.12C474.124 237.596 473.923 234.072 473.822 230.549C473.721 230.146 472.916 230.146 472.916 230.649Z" fill="#C4C1D2"/>
<path d="M458.823 266.591C464.158 273.739 469.493 280.786 474.828 287.934C475.634 288.941 476.338 289.948 477.144 290.955C477.446 291.357 478.05 290.955 477.748 290.552C472.413 283.404 467.077 276.357 461.742 269.209C460.937 268.202 460.232 267.195 459.427 266.188C459.125 265.786 458.521 266.188 458.823 266.591Z" fill="#C4C1D2"/>
<path d="M475.231 258.436C479.056 251.993 482.882 245.449 486.707 239.006C487.21 238.099 487.814 237.193 488.317 236.287C488.519 235.885 487.915 235.482 487.713 235.885C483.888 242.328 480.063 248.872 476.238 255.315C475.735 256.221 475.131 257.127 474.627 258.033C474.325 258.537 474.929 258.939 475.231 258.436Z" fill="#C4C1D2"/>
<path d="M457.212 276.256C454.797 278.773 457.514 282.196 460.434 280.484C462.95 277.967 460.232 274.544 457.212 276.256Z" fill="#C4C1D2"/>
<path d="M153.512 266.792C139.922 257.127 131.668 230.045 151.398 221.387C171.229 212.628 183.711 228.636 186.831 243.033C189.449 255.315 181.094 274.444 190.053 274.544C198.911 274.645 208.675 279.478 204.85 297.197C201.025 314.916 221.963 305.553 231.425 325.889C237.767 339.481 236.66 349.75 231.626 356.394L205.152 364.448C199.616 363.24 194.079 360.421 189.549 356.092C176.564 343.709 186.63 328.104 181.496 321.158C176.262 314.211 161.263 310.889 155.223 297.801C147.17 280.384 160.256 271.625 153.512 266.792Z" stroke="#C4C1D2" stroke-miterlimit="10"/>
<path d="M157.438 247.463C165.793 263.974 174.248 280.384 183.207 296.391C192.468 313.003 202.434 329.312 212.198 345.622C215.017 350.253 217.735 354.884 220.553 359.415C220.855 359.817 221.459 359.415 221.157 359.012C213.91 347.032 206.662 335.051 199.616 323.071C194.784 314.916 189.851 306.66 185.221 298.405C179.483 288.337 174.148 278.169 168.813 267.9C165.189 260.953 161.666 254.007 158.142 247.06C157.941 246.657 157.236 247.06 157.438 247.463Z" fill="#C4C1D2"/>
<path d="M159.35 288.136C167.605 292.667 175.758 297.197 184.013 301.727C185.12 302.331 186.328 303.036 187.435 303.64C187.838 303.842 188.241 303.238 187.838 303.036C179.584 298.506 171.43 293.975 163.176 289.445C162.068 288.841 160.86 288.136 159.753 287.532C159.35 287.23 158.948 287.834 159.35 288.136Z" fill="#C4C1D2"/>
<path d="M211.896 316.728C211.292 323.775 210.588 330.722 209.984 337.769C209.883 338.776 209.782 339.783 209.682 340.79C209.682 341.293 210.386 341.293 210.487 340.79C211.091 333.742 211.796 326.796 212.4 319.748C212.5 318.742 212.601 317.735 212.702 316.728C212.702 316.225 211.896 316.225 211.896 316.728Z" fill="#C4C1D2"/>
<path d="M161.968 298.002C160.659 301.425 164.786 303.64 166.9 300.62C168.209 297.297 164.081 295.082 161.968 298.002Z" fill="#C4C1D2"/>
<path d="M176.161 244.14C174.852 247.664 179.08 249.879 181.194 246.858C182.503 243.335 178.376 241.12 176.161 244.14Z" fill="#C4C1D2"/>
<path d="M164.887 236.69C163.175 241.221 168.611 244.04 171.43 240.214C173.141 235.684 167.705 232.764 164.887 236.69Z" fill="#C4C1D2"/>
<path d="M229.814 349.146L213.104 367.771C208.272 369.382 202.736 369.885 197.199 368.677C181.395 365.254 181.798 348.34 174.55 345.421C167.302 342.501 154.116 347.031 143.345 339.682C129.05 330.017 134.99 317.03 127.541 316.527C112.542 315.52 93.4157 298.405 104.589 282.397C115.763 266.289 132.976 272.833 142.036 282.498C149.787 290.753 153.008 309.077 159.954 304.949" stroke="#C4C1D2" stroke-miterlimit="10"/>
<path d="M121.501 299.814C135.594 308.674 149.888 317.332 164.383 325.487C179.281 333.944 194.582 341.897 209.782 349.851C214.111 352.166 218.439 354.381 222.768 356.697C223.171 356.898 223.573 356.294 223.171 356.093C211.997 350.253 200.823 344.414 189.75 338.474C172.94 329.514 156.431 320.252 140.123 310.385C133.983 306.66 127.943 302.935 121.903 299.21C121.501 298.908 121.098 299.613 121.501 299.814Z" fill="#C4C1D2"/>
<path d="M142.036 330.319C150.492 329.916 158.948 329.614 167.403 329.212C168.611 329.212 169.819 329.111 171.027 329.111C171.53 329.111 171.53 328.306 171.027 328.306C162.571 328.708 154.116 329.01 145.66 329.413C144.452 329.413 143.244 329.514 142.036 329.514C141.533 329.614 141.533 330.42 142.036 330.319Z" fill="#C4C1D2"/>
<path d="M195.992 327.802C198.81 333.541 201.629 339.279 204.347 344.917C204.749 345.723 205.152 346.528 205.555 347.333C205.756 347.736 206.461 347.434 206.159 346.931C203.34 341.192 200.522 335.454 197.804 329.816C197.401 329.01 196.998 328.205 196.596 327.4C196.394 326.997 195.79 327.299 195.992 327.802Z" fill="#C4C1D2"/>
<path d="M144.553 313.104C141.533 306.56 138.513 300.116 135.594 293.572C135.191 292.666 134.788 291.76 134.285 290.854C134.084 290.451 133.48 290.753 133.681 291.257C136.701 297.801 139.721 304.244 142.64 310.788C143.043 311.694 143.445 312.6 143.949 313.506C144.049 313.909 144.754 313.506 144.553 313.104Z" fill="#C4C1D2"/>
<path d="M148.68 336.762C149.284 339.984 153.512 339.783 153.713 336.46C153.109 333.239 148.982 333.541 148.68 336.762Z" fill="#C4C1D2"/>
<path d="M321.518 220.683C321.518 220.683 321.518 243.133 321.619 250.684C321.619 259.342 312.66 275.652 306.62 277.162C300.58 278.672 302.292 225.112 302.292 225.112L321.518 220.683Z" fill="white" stroke="#020046" stroke-width="0.75" stroke-miterlimit="10" stroke-linecap="round" stroke-linejoin="round"/>
<path d="M317.895 252.396C317.895 252.396 314.573 263.067 311.653 261.054C308.734 259.141 311.653 248.872 311.653 248.872C311.653 248.872 310.043 245.751 310.345 243.033" stroke="#020046" stroke-width="0.75" stroke-miterlimit="10" stroke-linecap="round" stroke-linejoin="round"/>
<path d="M206.259 194.104C210.889 193.198 215.52 190.782 219.647 186.352C232.834 172.257 237.767 158.163 237.767 158.163L252.564 114.167C224.68 116.382 210.487 142.759 210.487 142.759L199.011 164.304L206.259 194.104Z" fill="white"/>
<path d="M265.65 114.167C265.65 114.167 296.151 114.066 311.754 154.941C327.458 195.816 330.477 224.508 330.477 224.508L293.735 232.059L265.65 114.167Z" fill="white"/>
<path d="M297.762 169.036C297.762 173.063 295.648 173.969 293.031 173.969C290.414 173.969 288.3 173.063 288.3 169.036C288.3 165.009 293.031 159.371 293.031 159.371C293.031 159.371 297.762 164.908 297.762 169.036Z" fill="#00E5FF"/>
<path d="M317.693 186.05C317.693 190.077 315.579 190.983 312.962 190.983C310.345 190.983 308.231 190.077 308.231 186.05C308.231 182.023 312.962 176.385 312.962 176.385C312.962 176.385 317.693 182.023 317.693 186.05Z" fill="#00E5FF"/>
<path d="M301.889 203.266C301.889 207.293 299.775 208.199 297.158 208.199C294.541 208.199 292.427 207.293 292.427 203.266C292.427 199.239 297.158 193.601 297.158 193.601C297.158 193.601 301.889 199.239 301.889 203.266Z" fill="#00E5FF"/>
<path d="M321.921 214.24C321.921 218.267 319.807 219.173 317.19 219.173C314.573 219.173 312.459 218.267 312.459 214.24C312.459 210.213 317.19 204.575 317.19 204.575C317.19 204.575 321.921 210.213 321.921 214.24Z" fill="#00E5FF"/>
<path d="M298.366 132.088C298.467 132.088 298.467 132.088 298.567 132.088C296.957 130.175 295.245 128.463 293.635 126.953C293.635 127.054 293.635 127.054 293.635 127.154C293.635 131.182 295.749 132.088 298.366 132.088Z" fill="#00E5FF"/>
<path d="M314.17 163.197C314.371 163.197 314.573 163.197 314.774 163.197C313.767 160.478 312.761 157.76 311.754 154.941C311.553 154.337 311.251 153.733 311.05 153.129C310.144 154.74 309.439 156.653 309.439 158.263C309.439 162.29 311.553 163.197 314.17 163.197Z" fill="#00E5FF"/>
<path d="M266.355 114.167C266.355 114.167 296.151 114.066 311.754 154.941C327.458 195.816 330.477 224.508 330.477 224.508L293.735 232.059L266.355 114.167Z" stroke="#020046" stroke-width="0.75" stroke-miterlimit="10" stroke-linecap="round" stroke-linejoin="round"/>
<path d="M212.299 192.192L219.345 186.956C218.943 182.929 214.614 177.896 214.614 177.896C214.614 177.896 209.883 183.533 209.883 187.56C209.782 190.279 210.789 191.587 212.299 192.192Z" fill="#00E5FF"/>
<path d="M218.741 131.685C215.52 135.209 213.205 138.43 211.896 140.444C212.802 141.652 214.211 141.954 215.822 141.954C218.439 141.954 220.553 141.048 220.553 137.021C220.553 135.309 219.748 133.397 218.741 131.685Z" fill="#00E5FF"/>
<path d="M236.76 118.295C233.639 119.704 230.821 121.416 228.304 123.228C228.606 126.45 230.619 127.255 233.035 127.255C235.653 127.255 237.767 126.349 237.767 122.322C237.767 121.013 237.364 119.604 236.76 118.295Z" fill="#00E5FF"/>
<path d="M206.259 194.104C210.889 193.198 215.52 190.782 219.647 186.352C232.834 172.257 237.767 158.163 237.767 158.163L252.564 114.167C224.68 116.382 210.487 142.759 210.487 142.759L199.011 164.304L206.259 194.104Z" stroke="#020046" stroke-width="0.75" stroke-miterlimit="10" stroke-linecap="round" stroke-linejoin="round"/>
<path d="M222.868 200.95L202.736 347.937L315.277 350.454L299.574 200.95H222.868Z" fill="#651FFF"/>
<path d="M261.825 203.567L261.523 349.246" stroke="#020046" stroke-width="0.75" stroke-miterlimit="10"/>
<path d="M261.221 202.46H267.462V226.622C267.462 229.341 265.248 231.555 262.53 231.555" stroke="#020046" stroke-width="0.75" stroke-miterlimit="10"/>
<path d="M219.043 228.737C219.043 228.737 228.808 226.622 231.626 215.951" stroke="#020046" stroke-width="0.75" stroke-miterlimit="10"/>
<path d="M302.292 228.737C302.292 228.737 292.528 226.622 289.709 215.951" stroke="#020046" stroke-width="0.75" stroke-miterlimit="10"/>
<path d="M299.977 154.639C303.6 175.277 306.218 209.507 307.023 220.984H215.419C215.822 212.628 217.835 176.687 221.761 154.639C221.761 154.639 230.62 116.18 259.208 116.382C287.796 116.583 299.977 154.639 299.977 154.639Z" fill="white"/>
<path d="M215.319 220.985H306.922C306.721 218.568 306.52 215.045 306.218 210.917H215.923C215.621 215.447 215.42 218.971 215.319 220.985Z" fill="#00E5FF"/>
<path d="M239.176 210.917H237.163V220.985H239.176V210.917Z" fill="white"/>
<path d="M247.229 210.917H245.216L245.518 220.985H247.531L247.229 210.917Z" fill="white"/>
<path d="M255.886 210.917H253.873V220.985H255.886V210.917Z" fill="white"/>
<path d="M230.419 210.917H228.405V220.985H230.419V210.917Z" fill="white"/>
<path d="M220.352 220.985H222.365L223.07 210.917H221.057L220.352 220.985Z" fill="white"/>
<path d="M292.125 210.917H290.112V220.985H292.125V210.917Z" fill="white"/>
<path d="M265.852 210.917H263.838V220.985H265.852V210.917Z" fill="white"/>
<path d="M300.883 210.917H298.769L298.467 220.985H300.48L300.883 210.917Z" fill="white"/>
<path d="M282.562 210.917H280.549L281.153 220.985H283.166L282.562 210.917Z" fill="white"/>
<path d="M274.609 210.917H272.596V220.985H274.609V210.917Z" fill="white"/>
<path d="M221.761 154.639C217.835 176.687 215.822 212.628 215.419 220.984H307.023C306.218 209.507 303.6 175.277 299.976 154.639" stroke="#020046" stroke-width="0.75" stroke-miterlimit="10" stroke-linecap="round" stroke-linejoin="round"/>
<path d="M233.237 195.815C233.237 199.842 231.123 200.748 228.506 200.748C225.888 200.748 223.774 199.842 223.774 195.815C223.774 191.788 228.506 186.15 228.506 186.15C228.506 186.15 233.237 191.788 233.237 195.815Z" fill="#00E5FF"/>
<path d="M251.356 173.667C251.356 177.694 249.242 178.6 246.625 178.6C244.007 178.6 241.894 177.694 241.894 173.667C241.894 169.64 246.625 164.002 246.625 164.002C246.625 164.002 251.356 169.64 251.356 173.667Z" fill="#00E5FF"/>
<path d="M264.745 194.91C264.745 198.937 262.631 199.843 260.013 199.843C257.396 199.843 255.282 198.937 255.282 194.91C255.282 190.883 260.013 185.245 260.013 185.245C260.013 185.245 264.745 190.782 264.745 194.91Z" fill="#00E5FF"/>
<path d="M234.948 151.921C234.948 155.948 232.834 156.854 230.217 156.854C227.6 156.854 225.486 155.948 225.486 151.921C225.486 147.894 230.217 142.256 230.217 142.256C230.217 142.256 234.948 147.894 234.948 151.921Z" fill="#00E5FF"/>
<path d="M270.18 151.921C270.18 155.948 268.066 156.854 265.449 156.854C262.832 156.854 260.718 155.948 260.718 151.921C260.718 147.894 265.449 142.256 265.449 142.256C265.449 142.256 270.18 147.894 270.18 151.921Z" fill="#00E5FF"/>
<path d="M297.158 150.914C297.158 154.941 295.044 155.847 292.426 155.847C289.809 155.847 287.695 154.941 287.695 150.914C287.695 146.887 292.426 141.249 292.426 141.249C292.426 141.249 297.158 146.887 297.158 150.914Z" fill="#00E5FF"/>
<path d="M251.356 134.806C251.356 138.833 249.242 139.739 246.625 139.739C244.007 139.739 241.894 138.833 241.894 134.806C241.894 130.778 246.625 125.141 246.625 125.141C246.625 125.141 251.356 130.778 251.356 134.806Z" fill="#00E5FF"/>
<path d="M284.977 133.698C284.977 137.725 282.864 138.631 280.246 138.631C277.629 138.631 275.515 137.725 275.515 133.698C275.515 129.671 280.246 124.033 280.246 124.033C280.246 124.033 284.977 129.671 284.977 133.698Z" fill="#00E5FF"/>
<path d="M243.706 92.3202C242.8 92.4209 238.774 84.6688 238.572 78.2255C238.27 71.7822 240.887 59.7011 259.208 59.097C265.651 58.8957 279.341 59.7011 279.24 75.2052C279.139 90.8101 271.892 99.6696 270.281 100.576C268.67 101.381 257.094 90.1053 243.706 92.3202Z" fill="#020046"/>
<path d="M260.114 117.187H258C253.873 117.187 250.551 113.865 250.551 109.737V104.804C250.551 100.676 253.873 97.354 258 97.354H260.114C264.241 97.354 267.563 100.676 267.563 104.804V109.737C267.463 113.865 264.141 117.187 260.114 117.187Z" fill="white" stroke="#020046" stroke-width="0.75" stroke-miterlimit="10"/>
<path d="M281.153 91.3132C281.052 93.7294 279.039 95.6422 276.623 95.6422C274.207 95.5416 272.194 93.528 272.295 91.1118C272.395 88.6956 274.409 86.7827 276.824 86.7827C279.24 86.8834 281.153 88.8969 281.153 91.3132Z" fill="white" stroke="#020046" stroke-width="0.75" stroke-miterlimit="10"/>
<path d="M274.207 91.8167C274.207 91.8167 274.107 88.7964 277.127 89.1991" stroke="#020046" stroke-width="0.75" stroke-miterlimit="10" stroke-linecap="round" stroke-linejoin="round"/>
<path d="M236.861 91.112C236.76 93.5282 238.774 95.5418 241.19 95.6424C243.605 95.7431 245.719 93.7296 245.719 91.3134C245.82 88.8971 243.807 86.8836 241.391 86.7829C238.975 86.6822 236.962 88.6958 236.861 91.112Z" fill="white" stroke="#020046" stroke-width="0.75" stroke-miterlimit="10"/>
<path d="M243.706 91.8166C243.706 91.8166 244.008 88.7964 240.888 89.0984" stroke="#020046" stroke-width="0.75" stroke-miterlimit="10" stroke-linecap="round" stroke-linejoin="round"/>
<path d="M273.1 94.6354C273.1 100.072 268.67 104.502 263.235 104.502H254.88C249.444 104.502 245.015 100.072 245.015 94.6354V77.1177C245.015 71.6812 249.444 67.2515 254.88 67.2515H263.235C268.67 67.2515 273.1 71.6812 273.1 77.1177V94.6354Z" fill="white" stroke="#020046" stroke-width="0.75" stroke-miterlimit="10"/>
<path d="M256.792 94.2329C256.994 95.6424 258.101 96.6491 259.51 96.6491C260.92 96.6491 262.128 95.5417 262.228 94.2329" stroke="#020046" stroke-width="0.75" stroke-miterlimit="10" stroke-linecap="round" stroke-linejoin="round"/>
<path d="M258.906 83.8633C258.403 85.8768 258 87.7897 257.598 89.8032C258.504 89.8032 259.309 89.9039 260.215 89.9039" stroke="#00063D" stroke-width="0.75" stroke-miterlimit="10" stroke-linecap="round" stroke-linejoin="round"/>
<path d="M251.558 85.6755C251.558 86.3802 250.954 86.9843 250.25 86.9843C249.545 86.9843 248.941 86.3802 248.941 85.6755C248.941 84.9708 249.545 84.3667 250.25 84.3667C250.954 84.3667 251.558 84.8701 251.558 85.6755Z" fill="#020046"/>
<path d="M269.275 85.5749C269.275 86.2796 268.671 86.8837 267.966 86.8837C267.262 86.8837 266.658 86.2796 266.658 85.5749C266.658 84.8702 267.262 84.2661 267.966 84.2661C268.671 84.3668 269.275 84.8702 269.275 85.5749Z" fill="#020046"/>
<path d="M248.438 83.863C249.645 83.7623 250.853 83.7623 252.061 83.6616" stroke="#020046" stroke-width="0.75" stroke-miterlimit="10" stroke-linecap="round"/>
<path d="M266.054 82.8564C267.362 83.1585 268.671 83.5612 269.98 83.8632" stroke="#020046" stroke-width="0.75" stroke-miterlimit="10" stroke-linecap="round"/>
<path d="M266.254 58.7948C263.939 58.0901 261.926 57.788 260.617 57.788C256.389 57.6874 242.196 58.5935 238.975 68.1577C235.754 77.722 240.183 85.8768 240.183 85.8768V83.4605C241.491 84.87 245.82 87.6889 245.82 87.6889L246.323 83.0578C246.323 83.0578 263.738 83.0578 264.644 73.7956C264.644 73.4936 263.939 81.145 270.08 83.1585C270.08 83.1585 268.57 79.5341 269.375 76.7152C269.375 76.7152 269.476 82.2524 273.402 83.6619L274.006 88.0916C274.006 88.0916 275.918 86.1788 276.623 82.1517C276.925 85.9774 276.925 85.9774 276.925 85.9774C276.925 85.9774 281.555 81.3463 279.844 71.5807C278.636 64.2313 271.69 60.4056 266.254 58.7948Z" fill="#020046"/>
<path d="M268.368 121.718L249.343 121.315C246.223 121.214 243.807 118.697 243.907 115.577L244.008 112.053C244.109 108.932 246.625 106.516 249.746 106.616L268.771 107.019C271.892 107.12 274.308 109.637 274.207 112.758L274.106 116.281C274.006 119.302 271.489 121.818 268.368 121.718Z" fill="#00E5FF"/>
<path d="M266.657 121.718H267.966V107.019H266.657V121.718Z" fill="white"/>
<path d="M262.53 121.617H263.838V106.918H262.53V121.617Z" fill="white"/>
<path d="M270.885 121.113C271.389 120.912 271.791 120.61 272.194 120.207V108.327C271.791 108.025 271.389 107.723 270.885 107.421V121.113Z" fill="white"/>
<path d="M249.947 121.315H251.256V106.616H249.947V121.315Z" fill="white"/>
<path d="M258.302 121.516H259.611V106.817H258.302V121.516Z" fill="white"/>
<path d="M245.719 119.805C246.122 120.207 246.525 120.51 247.028 120.711V107.22C246.525 107.422 246.122 107.724 245.719 108.126V119.805Z" fill="white"/>
<path d="M254.175 121.416H255.483V106.717H254.175V121.416Z" fill="white"/>
<path d="M270.784 121.617L247.632 121.315" stroke="#020046" stroke-width="0.75" stroke-miterlimit="10" stroke-linecap="round" stroke-linejoin="round"/>
<path d="M205.252 152.525C205.252 152.525 196.495 125.04 196.897 118.698C197.401 112.355 200.622 101.079 198.105 100.475C195.488 99.8711 193.374 108.026 193.374 108.026C193.374 108.026 193.274 94.5353 189.952 93.9312C186.428 93.3272 187.435 104.804 187.435 104.804C187.435 104.804 187.536 93.9312 184.918 93.9312C181.697 93.9312 182.603 105.106 182.603 105.106C182.603 105.106 182.301 94.0319 179.684 94.3339C176.161 94.7366 177.872 105.912 177.872 105.912C177.872 105.912 177.167 95.5421 174.953 95.7434C172.738 95.9448 171.933 100.777 172.336 114.771C172.436 119.302 173.544 125.644 174.651 131.383C176.865 142.961 179.583 154.639 179.785 157.559C179.785 158.062 180.489 157.257 185.22 156.351C193.676 154.74 205.252 152.525 205.252 152.525Z" fill="white"/>
<path d="M190.052 112.053C190.757 109.033 193.475 108.026 193.475 108.026C193.475 108.026 195.388 100.173 197.803 100.375C200.219 100.576 199.011 104.704 198.407 108.429C197.904 112.053 196.898 118.194 197.099 120.812C197.401 126.45 205.353 152.525 205.353 152.525L179.986 157.659C179.986 157.659 174.248 129.671 173.242 122.523C172.235 115.275 171.53 105.207 172.537 100.475C173.04 98.059 173.141 95.542 175.255 95.8441C178.074 96.1461 178.074 108.63 178.074 108.63" stroke="#020046" stroke-width="0.75" stroke-miterlimit="10" stroke-linecap="round" stroke-linejoin="round"/>
<path d="M177.57 101.884C177.57 101.884 176.664 94.6357 179.483 94.3337C182.604 94.0317 182.1 98.6628 183.006 108.227" stroke="#020046" stroke-width="0.75" stroke-miterlimit="10" stroke-linecap="round" stroke-linejoin="round"/>
<path d="M182.503 102.992C182.503 102.992 181.899 93.7297 184.919 93.8304C187.536 93.9311 187.637 102.388 187.637 108.126" stroke="#020046" stroke-width="0.75" stroke-miterlimit="10" stroke-linecap="round" stroke-linejoin="round"/>
<path d="M187.536 101.784C187.536 101.784 186.932 94.334 189.448 94.032C192.67 93.6293 192.972 102.388 193.273 107.422" stroke="#020046" stroke-width="0.75" stroke-miterlimit="10" stroke-linecap="round" stroke-linejoin="round"/>
<path d="M213.407 191.486C199.414 201.554 183.107 193.802 179.08 183.533C174.853 172.66 175.557 142.86 175.557 142.86L202.938 138.631L211.997 162.391L215.42 187.963C215.521 188.063 214.212 190.983 213.407 191.486Z" fill="white"/>
<path d="M202.937 138.732L175.557 142.96C175.557 142.96 175.456 146.383 175.557 151.216L205.857 146.182L202.937 138.732Z" fill="#00E5FF"/>
<path d="M180.087 150.41L181.999 150.108L180.993 142.054L179.08 142.356L180.087 150.41Z" fill="white"/>
<path d="M187.536 141.047L185.623 141.349L186.63 149.303L188.542 149.001L187.536 141.047Z" fill="white"/>
<path d="M193.475 140.142L191.562 140.444L192.972 148.296L194.884 147.994L193.475 140.142Z" fill="white"/>
<path d="M197.602 139.537L199.615 147.189L201.528 146.887L199.515 139.235L197.602 139.537Z" fill="white"/>
<path d="M200.421 176.787C200.421 180.815 198.307 181.721 195.69 181.721C193.072 181.721 190.958 180.815 190.958 176.787C190.958 172.76 195.69 167.123 195.69 167.123C195.69 167.123 200.421 172.66 200.421 176.787Z" fill="#00E5FF"/>
<path d="M213.104 158.263C213.104 162.29 210.99 163.196 208.373 163.196C205.756 163.196 203.642 162.29 203.642 158.263C203.642 154.236 208.373 148.598 208.373 148.598C208.373 148.598 213.104 154.236 213.104 158.263Z" fill="#00E5FF"/>
<path d="M190.254 194.406C189.65 190.479 185.523 185.647 185.523 185.647C185.523 185.647 184.113 187.258 182.905 189.372C184.919 191.386 187.435 193.198 190.254 194.406Z" fill="#00E5FF"/>
<path d="M175.658 157.659C175.758 161.585 176.06 165.914 176.463 169.941C176.765 169.941 177.067 169.941 177.47 169.941C180.087 169.941 182.201 169.035 182.201 165.008C182.201 160.981 177.47 155.343 177.47 155.343C177.47 155.343 176.564 156.249 175.658 157.659Z" fill="#00E5FF"/>
<path d="M215.521 188.063L214.212 178.298C213.105 179.707 209.783 184.137 209.783 187.56C209.783 190.379 210.789 191.688 212.299 192.191L214.011 190.882C214.715 189.876 215.521 188.063 215.521 188.063Z" fill="#00E5FF"/>
<path d="M215.822 189.674C201.327 202.561 183.408 194.507 179.08 183.634C174.852 172.761 175.557 142.96 175.557 142.96L202.937 138.732L211.695 161.988" stroke="#020046" stroke-width="0.75" stroke-miterlimit="10" stroke-linecap="round" stroke-linejoin="round"/>
<path d="M441.207 118.798C441.207 118.798 473.419 124.738 483.486 156.249C494.961 192.09 484.492 215.044 484.492 215.044L452.683 209.809L441.207 118.798Z" fill="#651FFF"/>
<path d="M418.558 118.798C418.558 118.798 386.446 124.536 376.38 156.048C364.904 191.889 377.084 211.118 377.084 211.118L405.069 224.911L418.558 118.798Z" fill="#651FFF"/>
<path d="M412.216 123.63L420.37 118.697L448.857 122.624C448.857 122.624 467.48 224.709 464.762 224.81C462.044 224.911 393.493 226.22 393.493 226.22L412.216 123.63Z" fill="#651FFF"/>
<path d="M429.933 121.516V225.615" stroke="#020046" stroke-width="0.75" stroke-miterlimit="10" stroke-linecap="round" stroke-linejoin="round"/>
<path d="M433.557 139.537C434.224 139.537 434.765 138.996 434.765 138.329C434.765 137.662 434.224 137.121 433.557 137.121C432.889 137.121 432.349 137.662 432.349 138.329C432.349 138.996 432.889 139.537 433.557 139.537Z" stroke="#020046" stroke-width="0.75" stroke-miterlimit="10" stroke-linecap="round" stroke-linejoin="round"/>
<path d="M433.557 156.652C434.224 156.652 434.765 156.111 434.765 155.444C434.765 154.777 434.224 154.236 433.557 154.236C432.889 154.236 432.349 154.777 432.349 155.444C432.349 156.111 432.889 156.652 433.557 156.652Z" stroke="#020046" stroke-width="0.75" stroke-miterlimit="10" stroke-linecap="round" stroke-linejoin="round"/>
<path d="M434.765 172.459C434.765 173.163 434.261 173.667 433.557 173.667C432.852 173.667 432.349 173.163 432.349 172.459C432.349 171.754 432.852 171.25 433.557 171.25C434.261 171.25 434.765 171.855 434.765 172.459Z" stroke="#020046" stroke-width="0.75" stroke-miterlimit="10" stroke-linecap="round" stroke-linejoin="round"/>
<path d="M434.765 189.573C434.765 190.278 434.261 190.781 433.557 190.781C432.852 190.781 432.349 190.278 432.349 189.573C432.349 188.869 432.852 188.365 433.557 188.365C434.261 188.365 434.765 188.869 434.765 189.573Z" stroke="#020046" stroke-width="0.75" stroke-miterlimit="10" stroke-linecap="round" stroke-linejoin="round"/>
<path d="M433.557 207.897C434.224 207.897 434.765 207.356 434.765 206.689C434.765 206.021 434.224 205.48 433.557 205.48C432.889 205.48 432.349 206.021 432.349 206.689C432.349 207.356 432.889 207.897 433.557 207.897Z" stroke="#020046" stroke-width="0.75" stroke-miterlimit="10" stroke-linecap="round" stroke-linejoin="round"/>
<path d="M465.064 168.733L463.454 155.746" stroke="#020046" stroke-width="0.75" stroke-miterlimit="10" stroke-linecap="round" stroke-linejoin="round"/>
<path d="M395.506 171.855L398.224 157.156" stroke="#020046" stroke-width="0.75" stroke-miterlimit="10" stroke-linecap="round" stroke-linejoin="round"/>
<path d="M442.616 118.798L437.482 113.16H431.241H429.228H422.987L417.853 118.798L421.88 129.872L430.235 123.127L438.59 129.872L442.616 118.798Z" fill="#651FFF" stroke="#020046" stroke-width="0.75" stroke-miterlimit="10" stroke-linecap="round" stroke-linejoin="round"/>
<path d="M451.977 85.1721C451.977 84.3667 451.474 83.662 450.769 83.36C451.071 83.1586 451.273 82.7559 451.273 82.3532C451.273 81.9505 451.071 81.6485 450.769 81.3464C451.373 81.1451 451.776 80.541 451.776 79.937C451.776 79.2322 451.273 78.6282 450.568 78.4268C451.071 78.1248 451.474 77.6214 451.474 77.0173C451.474 76.1113 450.769 75.4065 449.864 75.4065C449.864 75.4065 449.864 75.4065 449.763 75.4065C450.065 75.1045 450.166 74.8025 450.166 74.3998C450.166 73.7957 449.864 73.393 449.36 73.091C449.461 72.8896 449.562 72.6883 449.562 72.3862C449.562 71.7822 449.159 71.2788 448.656 71.0774C448.756 70.8761 448.756 70.7754 448.756 70.5741C448.756 69.7686 448.152 69.1646 447.347 69.1646C447.246 69.1646 447.246 69.1646 447.146 69.1646C447.246 68.9632 447.347 68.7619 447.347 68.4599C447.347 67.5538 446.642 66.849 445.736 66.849C445.434 66.849 445.233 66.9497 445.032 67.0504C445.032 65.9429 444.126 64.9362 442.918 64.9362C442.414 64.9362 442.012 65.1375 441.71 65.3389C441.71 64.4328 440.905 63.6274 439.999 63.6274C439.596 63.6274 439.193 63.8287 438.891 64.0301C438.791 63.2247 438.187 62.6206 437.281 62.6206C436.878 62.6206 436.576 62.7213 436.274 63.0233C435.972 62.5199 435.469 62.2179 434.865 62.2179C434.361 62.2179 433.858 62.5199 433.556 62.9227C433.355 62.4193 432.851 62.1172 432.348 62.1172C431.945 62.1172 431.543 62.3186 431.342 62.6206C431.14 62.0166 430.536 61.6139 429.832 61.6139C429.328 61.6139 428.825 61.9159 428.523 62.3186C428.221 61.8152 427.718 61.5132 427.013 61.5132C426.308 61.5132 425.604 62.0166 425.402 62.6206C425.1 62.3186 424.798 62.2179 424.396 62.2179C423.792 62.2179 423.188 62.6206 423.087 63.2247C422.785 62.9227 422.483 62.7213 421.98 62.7213C421.477 62.7213 421.074 63.0233 420.772 63.3254C420.47 63.0233 420.067 62.822 419.665 62.822C418.859 62.822 418.155 63.5267 418.054 64.3321C417.853 64.2314 417.752 64.2314 417.551 64.2314C416.745 64.2314 416.141 64.8355 416.141 65.6409C416.141 65.7416 416.141 65.8423 416.141 65.9429C415.94 65.9429 415.839 65.8423 415.638 65.8423C414.631 65.8423 413.826 66.6477 413.826 67.6544C413.826 67.8558 413.826 68.1578 413.927 68.3592C413.625 68.1578 413.323 68.1578 413.021 68.1578C412.014 68.1578 411.209 68.9632 411.209 69.97C411.209 70.3727 411.31 70.7754 411.612 71.0774C410.806 71.0774 410.102 71.7822 410.102 72.5876C410.102 72.8896 410.202 73.1916 410.303 73.393C409.699 73.5944 409.296 74.1984 409.296 74.8025C409.296 75.3059 409.498 75.7086 409.9 76.0106C409.296 76.3126 408.793 77.0174 408.793 77.8228C408.793 78.5275 409.095 79.1316 409.598 79.4336C409.095 79.7356 408.793 80.239 408.793 80.8431C408.793 81.3464 408.994 81.7491 409.397 82.0512C408.994 82.4539 408.793 82.9573 408.793 83.4606C408.793 84.266 409.296 84.9708 410.001 85.3735C409.8 85.5748 409.598 85.8769 409.598 86.1789C409.598 86.6823 409.9 87.085 410.303 87.1857C409.9 87.4877 409.598 87.9911 409.598 88.4945C409.598 89.1992 410.001 89.7026 410.605 90.0046C410.303 90.3066 410.102 90.7093 410.102 91.2127C410.102 92.2195 410.907 93.0249 411.914 93.0249C412.518 95.2398 413.021 96.8506 413.121 96.9513C413.423 97.958 413.826 98.8641 414.329 99.6695C414.229 99.9716 414.128 100.173 414.128 100.576C414.128 101.683 415.034 102.589 416.141 102.589C416.343 102.589 416.544 102.589 416.645 102.488C424.094 109.032 438.589 106.516 439.999 105.811C440.603 105.509 442.213 103.999 443.824 101.28C444.025 101.381 444.226 101.381 444.528 101.381C445.434 101.381 446.24 100.576 446.24 99.6695C446.24 99.0655 445.938 98.5621 445.535 98.2601C446.24 96.7499 447.045 95.0384 447.649 93.1256C447.75 93.1256 447.85 93.1256 447.951 93.1256C448.958 93.1256 449.763 92.3202 449.763 91.3134C449.763 90.9107 449.562 90.508 449.36 90.206C450.166 90.1053 450.769 89.4005 450.769 88.4945C450.769 88.0918 450.669 87.7897 450.468 87.4877C450.669 87.2863 450.87 86.9843 450.87 86.6823V86.5816C451.474 86.5816 451.977 85.9775 451.977 85.1721Z" fill="#020046"/>
<path d="M434.16 61.7146C434.563 61.7146 434.865 61.5132 435.066 61.2112C435.368 61.5132 435.771 61.7146 436.173 61.7146C437.079 61.7146 437.784 61.0098 437.885 60.1037V60.0031C437.985 60.1037 438.187 60.1037 438.287 60.1037C438.891 60.1037 439.395 59.701 439.395 59.097C439.395 58.9963 439.395 58.8956 439.395 58.8956C439.495 58.8956 439.495 58.8956 439.596 58.8956C440.2 58.8956 440.703 58.4929 440.703 57.8889C440.703 57.5868 440.502 57.2848 440.3 57.0834C441.106 56.9828 441.71 56.3787 441.71 55.4726C441.71 54.8686 441.408 54.3652 440.904 54.0632C441.307 53.9625 441.609 53.5598 441.609 53.1571C441.609 52.7544 441.307 52.3517 440.904 52.251C441.005 52.0496 441.106 51.7476 441.106 51.4456C441.106 50.6402 440.502 49.9354 439.696 49.8347C439.696 49.7341 439.696 49.7341 439.797 49.6334C439.797 49.2307 439.495 48.828 438.992 48.828C438.891 48.828 438.891 48.828 438.891 48.828C438.791 48.4253 438.388 48.1232 437.985 48.1232C437.683 48.1232 437.482 48.2239 437.281 48.4253C437.18 48.0226 436.777 47.6199 436.274 47.6199C436.173 47.6199 436.073 47.6199 435.972 47.7205C435.67 47.2172 435.167 46.8145 434.563 46.8145C433.959 46.8145 433.355 47.1165 433.053 47.7205C432.952 47.6199 432.751 47.6199 432.549 47.6199C432.046 47.6199 431.643 48.0226 431.543 48.526C431.442 48.526 431.341 48.4253 431.341 48.4253C430.737 48.4253 430.234 48.828 430.234 49.432C430.234 49.5327 430.234 49.5327 430.234 49.6334C430.133 49.6334 430.033 49.5327 429.932 49.5327C429.328 49.5327 428.825 49.9354 428.825 50.5395C428.825 50.6402 428.825 50.7408 428.926 50.8415C428.926 50.8415 428.926 50.8415 428.825 50.8415C428.221 50.8415 427.718 51.2442 427.718 51.8483C427.718 51.9489 427.718 52.1503 427.818 52.251C427.214 52.3517 426.711 52.855 426.711 53.4591C426.711 54.0632 427.114 54.5665 427.718 54.7679C427.315 55.0699 427.114 55.4726 427.114 55.976C427.114 56.7814 427.718 57.4861 428.523 57.5868C428.322 57.8889 428.221 58.1909 428.221 58.4929C428.221 59.399 428.926 60.1037 429.832 60.2044C430.033 60.2044 430.234 60.2044 430.435 60.1037C430.637 60.3051 430.939 60.5064 431.241 60.5064C431.341 60.5064 431.442 60.5064 431.543 60.4058C431.643 60.8085 432.046 61.1105 432.449 61.1105C432.65 61.1105 432.851 61.0098 433.053 60.9091C433.153 61.3119 433.556 61.7146 434.16 61.7146Z" fill="#020046"/>
<path d="M452.682 96.9513C452.581 99.4682 450.468 101.381 447.951 101.28C445.434 101.18 443.522 99.0655 443.622 96.6493C443.723 94.1324 445.837 92.2195 448.354 92.3202C450.87 92.4209 452.783 94.5351 452.682 96.9513Z" fill="white" stroke="#020046" stroke-width="0.75" stroke-miterlimit="10"/>
<path d="M445.736 97.2532C445.736 97.2532 445.636 94.2329 448.756 94.6356" stroke="#020046" stroke-width="0.75" stroke-miterlimit="10" stroke-linecap="round" stroke-linejoin="round"/>
<path d="M407.787 96.0453C407.686 98.5622 409.598 100.576 412.115 100.676C414.632 100.777 416.746 98.8642 416.846 96.3473C416.947 93.8304 415.034 91.8169 412.518 91.7162C410.001 91.6155 407.887 93.5284 407.787 96.0453Z" fill="white" stroke="#020046" stroke-width="0.75" stroke-miterlimit="10"/>
<path d="M414.732 96.8505C414.732 96.8505 415.034 93.8303 411.914 94.0316" stroke="#020046" stroke-width="0.75" stroke-miterlimit="10" stroke-linecap="round" stroke-linejoin="round"/>
<path d="M431.744 121.919H429.53C425.503 121.919 422.181 118.596 422.181 114.569V109.535C422.181 105.508 425.503 102.186 429.53 102.186H431.744C435.771 102.186 439.093 105.508 439.093 109.535V114.569C439.093 118.596 435.871 121.919 431.744 121.919Z" fill="white" stroke="#020046" stroke-width="0.75" stroke-miterlimit="10"/>
<path d="M444.226 97.555C444.126 104.502 438.287 110.039 431.442 109.938L428.12 109.838C421.174 109.737 415.638 103.898 415.739 97.0516L415.94 84.4671C416.041 77.5204 421.879 71.9832 428.724 72.0839L432.046 72.1845C438.992 72.2852 444.528 78.1245 444.428 84.9704L444.226 97.555Z" fill="white" stroke="#020046" stroke-width="0.75" stroke-miterlimit="10"/>
<path d="M445.837 99.2665C446.24 99.0652 446.542 98.5618 446.542 98.0584C446.542 97.253 445.938 96.6489 445.132 96.6489C445.535 96.4476 445.837 95.9442 445.837 95.4408C445.837 94.8368 445.535 94.3334 445.032 94.132C445.334 93.83 445.535 93.4273 445.535 93.0246C445.535 92.2192 444.931 91.6151 444.126 91.6151C443.32 91.6151 442.716 92.2192 442.716 93.0246C442.716 93.1253 442.716 93.2259 442.716 93.3266C442.012 93.3266 441.508 93.83 441.508 94.5347C441.508 94.6354 441.508 94.8368 441.609 94.9375C441.307 95.0381 441.106 95.2395 441.005 95.5415C440.904 95.5415 440.804 95.4408 440.602 95.4408C439.999 95.4408 439.495 95.8435 439.294 96.3469C439.093 96.2462 438.891 96.2462 438.589 96.2462C437.885 96.2462 437.381 96.6489 437.079 97.253C436.777 96.951 436.375 96.7496 435.972 96.7496C435.469 96.7496 435.066 96.951 434.865 97.253C434.663 96.8503 434.261 96.5483 433.757 96.5483C433.355 96.5483 432.952 96.7496 432.751 97.0517C432.449 96.5483 431.945 96.2462 431.341 96.2462C430.939 96.2462 430.536 96.4476 430.234 96.7496C430.033 96.5483 429.731 96.4476 429.429 96.4476C429.026 96.4476 428.624 96.6489 428.422 96.951C428.221 96.7496 427.919 96.6489 427.718 96.6489C427.114 96.6489 426.711 97.0517 426.51 97.555C426.308 97.3537 426.006 97.1523 425.604 97.1523C425.302 97.1523 425.1 97.253 424.899 97.3537C424.597 96.951 424.094 96.6489 423.59 96.6489C423.188 96.6489 422.886 96.7496 422.584 96.951C422.382 96.4476 421.879 96.0449 421.275 96.0449C420.973 96.0449 420.671 96.1456 420.47 96.2462C420.47 95.5415 419.967 95.0381 419.262 95.0381C419.061 95.0381 418.96 95.0381 418.759 95.1388C418.759 95.0381 418.759 94.9374 418.759 94.8368C418.759 94.0314 418.155 93.4273 417.349 93.4273C417.249 93.4273 417.148 93.4273 417.148 93.4273C417.148 93.0246 416.947 92.7226 416.745 92.4205C416.947 92.2192 417.047 91.8165 417.047 91.5145C417.047 90.709 416.443 90.105 415.638 90.105C414.833 90.105 414.229 90.709 414.229 91.5145C414.229 91.9172 414.43 92.2192 414.631 92.5212C414.43 92.7226 414.329 93.1253 414.329 93.4273C414.329 94.0314 414.631 94.5347 415.135 94.7361C414.933 94.9374 414.732 95.2395 414.732 95.5415C414.732 95.8435 414.833 96.0449 415.034 96.2462C414.43 96.4476 413.927 96.951 413.927 97.6557C413.927 98.3604 414.329 98.8638 415.034 99.0652C414.933 99.2665 414.833 99.5686 414.833 99.8706C414.833 100.575 415.336 101.179 415.94 101.28C415.839 101.481 415.739 101.783 415.739 102.085C415.739 102.79 416.242 103.394 416.947 103.596C416.745 103.898 416.645 104.2 416.645 104.502C416.645 105.508 417.45 106.213 418.356 106.213H418.457C418.457 106.314 418.356 106.515 418.356 106.717C418.356 107.522 419.061 108.227 419.866 108.227C420.168 108.227 420.47 108.126 420.671 108.025C420.671 108.73 421.275 109.334 421.98 109.334C422.382 109.334 422.785 109.133 422.986 108.73C422.986 108.831 422.986 108.931 422.986 109.032C422.986 109.838 423.691 110.542 424.496 110.542C425 110.542 425.503 110.24 425.805 109.838C426.006 110.542 426.61 110.945 427.315 110.945C428.02 110.945 428.523 110.542 428.825 110.039C429.026 110.542 429.53 110.844 430.134 110.844C430.637 110.844 431.039 110.643 431.241 110.341C431.543 110.744 432.046 110.945 432.549 110.945C433.053 110.945 433.455 110.744 433.757 110.341C433.959 110.542 434.261 110.643 434.563 110.643C435.066 110.643 435.569 110.341 435.771 109.838C435.972 109.938 436.173 110.039 436.475 110.039C437.18 110.039 437.683 109.536 437.784 108.931C437.985 109.032 438.187 109.032 438.489 109.032C439.395 109.032 440.099 108.327 440.099 107.421C440.2 107.421 440.401 107.522 440.502 107.522C441.307 107.522 441.911 106.918 441.911 106.113C441.911 106.012 441.911 106.012 441.911 105.911C442.012 105.911 442.112 105.911 442.112 105.911C443.018 105.911 443.723 105.206 443.723 104.3C443.723 104.099 443.622 103.797 443.522 103.596C444.226 103.596 444.83 102.992 444.83 102.186C444.83 101.985 444.73 101.783 444.629 101.582C444.73 101.582 444.73 101.582 444.83 101.582C445.736 101.582 446.441 100.877 446.441 99.9713C446.441 99.9713 446.24 99.5686 445.837 99.2665Z" fill="#020046"/>
<path d="M448.052 84.6686C448.052 83.6618 447.448 82.7557 446.542 82.353C446.642 82.1517 446.642 81.9503 446.642 81.7489C446.642 80.9435 445.938 80.2388 445.132 80.2388C445.132 80.1381 445.233 79.9368 445.233 79.8361C445.233 79.0307 444.73 78.4266 443.924 78.326C443.924 78.2253 444.025 78.0239 444.025 77.9233C444.025 77.1178 443.32 76.4131 442.515 76.4131C442.414 76.4131 442.213 76.4131 442.112 76.5138C442.213 76.3124 442.314 76.0104 442.314 75.7084C442.314 74.6009 441.408 73.6948 440.3 73.6948C439.797 73.6948 439.294 73.8962 438.891 74.2989C438.891 73.3928 438.187 72.5874 437.18 72.5874C436.777 72.5874 436.375 72.7888 436.073 72.9901C435.972 72.084 435.267 71.3793 434.462 71.3793C434.361 71.3793 434.361 71.3793 434.261 71.3793C433.858 70.4732 433.053 69.8691 431.945 69.8691C430.838 69.8691 429.832 70.6745 429.53 71.6813C429.328 71.48 429.026 71.3793 428.724 71.3793C428.422 71.3793 428.221 71.48 427.919 71.5806C427.516 70.8759 426.812 70.3725 426.006 70.3725C424.899 70.3725 423.993 71.1779 423.892 72.1847C423.691 72.084 423.49 72.084 423.288 72.084C422.483 72.084 421.879 72.6881 421.778 73.3928C421.476 73.1915 421.074 73.0908 420.671 73.0908C419.564 73.0908 418.557 73.9969 418.557 75.205C418.557 75.6077 418.658 76.0104 418.859 76.3124C418.054 76.3124 417.349 77.0172 417.349 77.8226C417.349 77.9233 417.349 78.1246 417.45 78.2253C417.45 78.2253 417.45 78.2253 417.349 78.2253C416.443 78.2253 415.638 79.0307 415.638 79.9368C415.437 79.9368 415.336 79.8361 415.135 79.8361C414.128 79.8361 413.323 80.6415 413.323 81.6483C413.323 82.4537 413.826 83.0577 414.531 83.3598C413.826 83.6618 413.323 84.3665 413.323 85.1719C413.323 85.9774 413.826 86.6821 414.531 86.9841C414.027 87.2862 413.725 87.7895 413.725 88.2929C413.725 88.7963 413.927 89.199 414.229 89.4004C413.725 89.7024 413.323 90.3064 413.323 91.0112C413.323 91.9173 414.027 92.7227 414.833 92.924C414.732 93.0247 414.732 93.2261 414.732 93.4274C414.732 93.9308 415.135 94.3335 415.638 94.3335C416.141 94.3335 416.544 93.9308 416.544 93.4274C416.544 93.1254 416.443 92.924 416.242 92.7227C416.846 92.4206 417.148 91.7159 417.148 91.0112C417.148 90.3064 416.745 89.7024 416.242 89.2997C416.544 88.9976 416.745 88.5949 416.745 88.1922C416.745 87.5882 416.443 87.0848 415.94 86.8835C416.645 86.5814 417.148 85.8767 417.148 85.0713C417.148 84.4672 416.846 83.9638 416.443 83.5611C417.349 83.5611 418.054 82.8564 418.054 81.9503C418.054 81.749 418.054 81.5476 417.953 81.3462C418.557 81.0442 418.96 80.4402 418.96 79.8361C418.96 79.6348 418.96 79.4334 418.859 79.3327C419.665 79.3327 420.369 78.628 420.369 77.8226C420.369 77.6212 420.369 77.4199 420.269 77.2185C420.369 77.2185 420.47 77.2185 420.57 77.2185C421.678 77.2185 422.684 76.3124 422.684 75.1043V75.0036C422.886 75.1043 422.986 75.1043 423.188 75.1043C423.792 75.1043 424.295 74.7016 424.597 74.1982C425 74.5002 425.402 74.7016 425.906 74.7016C426.61 74.7016 427.315 74.2989 427.718 73.7955C427.919 73.9969 428.322 74.0975 428.624 74.0975C429.026 74.0975 429.429 73.8962 429.731 73.5942C430.133 74.2989 430.939 74.7016 431.845 74.7016C432.348 74.7016 432.851 74.5002 433.355 74.1982C433.657 74.3996 433.959 74.6009 434.361 74.6009C434.764 74.6009 435.167 74.3996 435.469 74.1982C435.469 75.1043 436.274 75.809 437.18 75.809C437.583 75.809 437.985 75.6077 438.287 75.4063C438.287 75.507 438.287 75.507 438.287 75.6077C438.287 76.7151 439.193 77.6212 440.3 77.6212C440.602 77.6212 440.804 77.5205 441.106 77.4199C441.106 77.5205 441.005 77.7219 441.005 77.8226C441.005 78.628 441.508 79.232 442.314 79.3327C442.314 79.4334 442.213 79.6347 442.213 79.7354C442.213 80.4402 442.716 81.0442 443.32 81.1449C443.22 81.3462 443.119 81.6483 443.119 81.9503C443.119 82.353 443.32 82.7557 443.622 83.1584C443.32 83.5611 443.119 84.0645 443.119 84.5679C443.119 85.474 443.622 86.2794 444.428 86.7828C444.025 87.0848 443.723 87.5882 443.723 88.1922C443.723 88.6956 443.924 89.199 444.327 89.501C444.025 89.7024 443.824 90.1051 443.824 90.5078C443.824 90.8098 443.924 91.0112 444.025 91.2125C443.522 91.4139 443.22 91.8166 443.22 92.32C443.22 92.8234 443.522 93.2261 443.824 93.4274C443.723 93.5281 443.622 93.7294 443.622 93.9308C443.622 94.3335 443.924 94.7362 444.428 94.7362C444.83 94.7362 445.233 94.4342 445.233 93.9308C445.233 93.7294 445.132 93.6288 445.032 93.4274C445.434 93.2261 445.736 92.8234 445.736 92.32C445.736 92.0179 445.636 91.8166 445.535 91.6152C445.938 91.4139 446.34 91.0112 446.34 90.5078C446.34 90.3064 446.24 90.0044 446.139 89.8031C446.743 89.501 447.146 88.897 447.146 88.1922C447.146 87.6889 446.944 87.2862 446.642 86.9841C447.347 86.5814 448.052 85.6753 448.052 84.6686Z" fill="#020046"/>
<path d="M433.254 99.5684C433.053 100.978 431.845 101.985 430.436 101.985C429.026 101.985 427.818 100.877 427.718 99.4678L433.254 99.5684Z" fill="white" stroke="#020046" stroke-width="0.75" stroke-miterlimit="10" stroke-linecap="round" stroke-linejoin="round"/>
<path d="M421.074 88.3936C420.671 88.3936 420.168 88.4942 419.866 88.8969C419.564 89.199 419.362 89.6017 419.362 90.105C419.362 90.5078 419.463 91.0111 419.866 91.3132C420.168 91.6152 420.57 91.8165 421.074 91.8165C421.98 91.8165 422.684 91.1118 422.684 90.2057C422.785 89.199 421.98 88.4942 421.074 88.3936Z" fill="#020046"/>
<path d="M438.79 88.897C437.884 88.897 437.079 89.6017 437.079 90.5078C437.079 90.9105 437.18 91.4139 437.582 91.7159C437.884 92.0179 438.287 92.2193 438.79 92.2193C439.193 92.2193 439.596 92.0179 439.898 91.7159C440.2 91.4139 440.401 91.0112 440.401 90.5078C440.502 89.7024 439.696 88.897 438.79 88.897Z" fill="#020046"/>
<path d="M437.583 86.9838C437.885 86.9838 438.187 87.0845 438.489 87.0845C438.69 87.0845 438.287 87.0845 438.589 87.0845C438.69 87.0845 438.69 87.0845 438.791 87.0845C438.891 87.0845 439.093 87.0845 439.193 87.1851C439.797 87.2858 440.401 87.3865 440.905 87.4872C441.307 87.5878 441.71 87.3865 441.811 86.9838C441.911 86.5811 441.71 86.1784 441.307 86.0777C440.099 85.8763 438.791 85.675 437.583 85.4736C437.18 85.4736 436.777 85.8763 436.777 86.279C436.777 86.6817 437.18 86.8831 437.583 86.9838Z" fill="#020046"/>
<path d="M419.262 87.0846C420.671 86.984 422.08 86.984 423.49 86.8833C423.892 86.8833 424.295 86.5813 424.295 86.0779C424.295 85.6752 423.993 85.2725 423.49 85.2725C422.08 85.3731 420.671 85.3731 419.262 85.4738C418.859 85.4738 418.457 85.7758 418.457 86.2792C418.457 86.6819 418.859 87.0846 419.262 87.0846Z" fill="#020046"/>
<path d="M430.033 88.897L427.617 94.6355L430.637 95.4409" stroke="#020046" stroke-width="0.75" stroke-miterlimit="10" stroke-linecap="round" stroke-linejoin="round"/>
<path d="M474.627 341.091H393.492L385.037 214.944L475.633 213.232L474.627 341.091Z" fill="#00063D"/>
<path d="M390.17 218.971H471.104" stroke="white" stroke-width="0.75" stroke-miterlimit="10" stroke-linecap="round" stroke-linejoin="round"/>
<path d="M433.154 341.595L430.436 253.503H426.409" stroke="white" stroke-width="0.75" stroke-miterlimit="10" stroke-linecap="round" stroke-linejoin="round"/>
<path d="M452.984 218.971C452.984 218.971 457.011 230.75 472.01 234.878" stroke="white" stroke-width="0.75" stroke-miterlimit="10" stroke-linecap="round" stroke-linejoin="round"/>
<path d="M423.691 183.432L398.828 177.291L381.816 171.25L380.104 169.438L390.573 133.396C390.573 133.396 375.272 149.102 369.535 158.766C354.838 179.103 357.455 201.252 361.28 207.695C365.105 214.138 382.722 225.817 406.075 220.783C429.53 215.749 451.374 194.507 451.374 194.507L423.691 183.432Z" fill="#651FFF"/>
<path d="M451.575 194.506C451.575 194.506 429.631 215.648 406.277 220.783C396.915 222.796 388.56 222.192 381.514 220.28" stroke="#020046" stroke-width="0.75" stroke-miterlimit="10" stroke-linecap="round"/>
<path d="M481.774 182.526C482.076 180.814 482.076 178.902 481.371 177.693C481.271 177.593 481.17 177.492 481.069 177.291C481.069 177.291 481.673 173.264 479.257 172.056C478.855 171.854 478.351 171.754 477.848 171.653L478.049 171.452C478.452 168.834 474.929 166.619 466.574 167.324C458.219 168.029 443.623 175.982 443.623 175.982V182.929C443.623 182.929 458.017 188.063 461.943 187.459C465.869 186.855 478.955 191.889 481.573 185.144C482.076 184.137 481.975 183.231 481.774 182.526Z" fill="white"/>
<path d="M468.083 172.257C468.083 172.257 476.64 170.948 479.358 172.257C481.774 173.465 481.17 177.492 481.17 177.492" stroke="#020046" stroke-width="0.75" stroke-miterlimit="10" stroke-linecap="round" stroke-linejoin="round"/>
<path d="M469.392 176.183C469.392 176.183 479.559 174.572 481.371 177.794C482.076 178.901 482.076 180.915 481.774 182.626" stroke="#020046" stroke-width="0.75" stroke-miterlimit="10" stroke-linecap="round" stroke-linejoin="round"/>
<path d="M470.298 179.304C470.298 179.304 484.19 178.398 481.573 185.345C479.056 192.09 465.869 187.056 461.943 187.66C458.017 188.264 443.623 183.13 443.623 183.13V176.183C443.623 176.183 458.319 168.33 466.574 167.525C474.929 166.82 478.452 169.035 478.049 171.653" stroke="#020046" stroke-width="0.75" stroke-miterlimit="10" stroke-linecap="round" stroke-linejoin="round"/>
<path d="M425.302 175.983C425.302 175.983 408.692 161.586 400.639 166.821C392.586 172.056 390.372 182.224 393.492 186.252C396.613 190.279 421.779 193.5 421.779 193.5L425.302 175.983Z" fill="white" stroke="#020046" stroke-width="0.75" stroke-miterlimit="10" stroke-linecap="round" stroke-linejoin="round"/>
<path d="M473.016 181.922L424.496 167.928L415.235 196.621C415.235 196.621 449.562 226.925 478.854 223.602C506.336 220.481 496.169 181.016 485.196 157.559C484.19 155.444 483.284 153.431 482.378 151.619C481.17 149.504 479.962 147.793 478.955 146.182L485.8 184.943L473.016 181.922Z" fill="#651FFF"/>
<path d="M484.995 184.943L424.597 167.928L415.336 196.621C415.336 196.621 449.763 227.529 478.955 223.602C478.955 223.602 491.437 222.293 494.558 212.226" stroke="#020046" stroke-width="0.75" stroke-miterlimit="10" stroke-linecap="round" stroke-linejoin="round"/>
<path d="M415.235 196.621C415.235 196.621 418.054 199.138 422.886 202.662L433.153 170.244L424.597 167.828L415.235 196.621Z" stroke="#020046" stroke-width="0.75" stroke-miterlimit="10" stroke-linecap="round" stroke-linejoin="round"/>
<path d="M395.405 352.468L390.875 255.214L390.674 245.851L349.604 242.73V280.685L349.906 352.468H395.405Z" fill="white"/>
<path d="M358.059 283.907H349.503V285.216H357.959V301.828H349.503V303.136H357.959V319.748H349.604V321.057H357.959V337.668H349.704V338.977H357.959V352.669H359.267V338.977H375.877V352.669H377.185V338.977H393.795V352.669H395.103V346.427L393.795 319.245V319.849H377.185V303.036H393.09L392.989 301.727H377.185V285.115H392.184L392.083 283.806H377.085V267.195H391.278L391.177 265.886H377.085V249.274H390.573V247.966H377.085V244.744L375.776 244.643V247.966H359.368V243.335L358.059 243.234V247.966H349.503V249.274H358.059V265.886H349.503V267.195H358.059V283.907ZM377.286 320.956H393.895V337.568H377.286V320.956ZM359.368 249.375H375.977V265.987H359.368V249.375ZM359.368 267.296H375.977V283.907H359.368V267.296ZM359.368 285.216H375.977V301.828H359.368V285.216ZM359.368 303.036H375.977V319.647H359.368V303.036ZM359.368 320.956H375.977V337.568H359.368V320.956Z" fill="#00E5FF"/>
<path d="M349.906 354.079L349.604 280.685V242.73L390.674 245.851L390.875 255.214L395.506 353.575" stroke="#020046" stroke-width="0.75" stroke-miterlimit="10" stroke-linecap="round"/>
<path d="M347.993 352.468L350.207 251.389L309.741 245.852L309.036 253.302L305.11 352.468H347.993Z" fill="white"/>
<path d="M305.11 352.468H305.714V338.776H322.324V352.468H323.632V338.776H340.242V352.468H341.55V338.776H348.396V337.467H341.55V320.856H348.798V319.547H341.55V303.036H349.1V301.727H341.45V285.115H349.402V283.807H341.349V267.195H349.704V265.886H341.349V250.08L340.04 249.879V265.886H323.431V249.275H335.511L326.048 247.966H323.431V247.563L322.122 247.362V247.865H309.338L309.238 249.174H322.122V265.786H308.332V267.094H322.223V283.907H307.728V285.216H322.324V301.828H307.124V303.137H322.424V319.748H306.52V321.057H322.525V337.669H305.916V337.568L305.11 352.468ZM323.632 267.296H340.242V283.907H323.632V267.296ZM323.632 285.216H340.242V301.828H323.632V285.216ZM323.632 303.036H340.242V319.647H323.632V303.036ZM323.632 320.956H340.242V337.568H323.632V320.956Z" fill="#00E5FF"/>
<path d="M305.11 352.468L309.036 253.302L309.741 245.852L350.207 251.389L347.993 352.468" stroke="#020046" stroke-width="0.75" stroke-miterlimit="10" stroke-linecap="round"/>
<path d="M415.639 199.439C414.733 185.949 410.102 178.398 410.102 178.398C404.868 166.619 399.633 158.162 394.298 150.712C389.869 144.571 385.541 139.134 380.507 135.409C370.441 127.859 359.267 124.436 346.181 122.221H343.866C316.284 126.852 305.815 131.684 291.118 173.968C285.079 191.486 307.124 204.574 306.017 219.675C305.111 232.059 302.191 246.556 304.104 252.597L305.312 253.905H308.936C326.149 255.315 389.466 257.429 394.298 256.02C397.62 255.013 395.607 232.965 395.607 232.965L395.708 232.562C402.955 230.347 408.492 224.307 408.492 224.307C408.492 224.307 411.008 222.595 413.022 217.763C414.833 213.534 416.142 206.588 415.639 199.439Z" fill="white"/>
<path d="M340.544 139.638C340.544 140.645 341.349 141.45 342.356 141.45C343.363 141.45 344.168 140.645 344.168 139.638C344.168 138.631 343.363 137.826 342.356 137.826C341.349 137.826 340.544 138.631 340.544 139.638Z" fill="#020046"/>
<path d="M350.913 150.712C350.913 151.719 351.718 152.524 352.725 152.524C353.731 152.524 354.536 151.719 354.536 150.712C354.536 149.705 353.731 148.9 352.725 148.9C351.718 148.9 350.913 149.705 350.913 150.712Z" fill="#020046"/>
<path d="M355.442 132.792C355.442 133.798 356.248 134.604 357.254 134.604C358.261 134.604 359.066 133.798 359.066 132.792C359.066 131.785 358.261 130.979 357.254 130.979C356.248 130.979 355.442 131.785 355.442 132.792Z" fill="#020046"/>
<path d="M389.97 158.263C389.97 159.27 390.775 160.075 391.782 160.075C392.788 160.075 393.594 159.27 393.594 158.263C393.594 157.256 392.788 156.451 391.782 156.451C390.775 156.451 389.97 157.256 389.97 158.263Z" fill="#020046"/>
<path d="M404.566 175.982C404.566 176.988 405.371 177.794 406.378 177.794C407.385 177.794 408.19 176.988 408.19 175.982C408.19 174.975 407.385 174.169 406.378 174.169C405.371 174.169 404.566 174.975 404.566 175.982Z" fill="#020046"/>
<path d="M394.298 195.815C394.298 196.822 395.104 197.627 396.11 197.627C397.117 197.627 397.922 196.822 397.922 195.815C397.922 194.808 397.117 194.003 396.11 194.003C395.204 194.003 394.298 194.808 394.298 195.815Z" fill="#020046"/>
<path d="M374.166 194.405C374.166 195.412 374.971 196.218 375.977 196.218C376.984 196.218 377.789 195.412 377.789 194.405C377.789 193.399 376.984 192.593 375.977 192.593C374.971 192.593 374.166 193.399 374.166 194.405Z" fill="#020046"/>
<path d="M384.031 182.224C384.031 183.231 384.836 184.036 385.843 184.036C386.849 184.036 387.655 183.231 387.655 182.224C387.655 181.217 386.849 180.412 385.843 180.412C384.836 180.412 384.031 181.217 384.031 182.224Z" fill="#020046"/>
<path d="M387.05 207.695C387.05 208.702 387.856 209.507 388.862 209.507C389.869 209.507 390.674 208.702 390.674 207.695C390.674 206.688 389.869 205.883 388.862 205.883C387.856 205.883 387.05 206.688 387.05 207.695Z" fill="#020046"/>
<path d="M387.05 227.226C387.05 228.233 387.856 229.038 388.862 229.038C389.869 229.038 390.674 228.233 390.674 227.226C390.674 226.219 389.869 225.414 388.862 225.414C387.856 225.414 387.05 226.219 387.05 227.226Z" fill="#020046"/>
<path d="M401.747 217.863C401.747 218.87 402.552 219.676 403.559 219.676C404.566 219.676 405.371 218.87 405.371 217.863C405.371 216.857 404.566 216.051 403.559 216.051C402.552 216.051 401.747 216.857 401.747 217.863Z" fill="#020046"/>
<path d="M373.058 219.675C373.058 220.682 373.863 221.488 374.87 221.488C375.877 221.488 376.682 220.682 376.682 219.675C376.682 218.669 375.877 217.863 374.87 217.863C373.863 217.863 373.058 218.669 373.058 219.675Z" fill="#020046"/>
<path d="M407.284 196.62C407.284 197.627 408.089 198.432 409.096 198.432C410.102 198.432 410.908 197.627 410.908 196.62C410.908 195.614 410.102 194.808 409.096 194.808C408.089 194.808 407.284 195.614 407.284 196.62Z" fill="#020046"/>
<path d="M330.88 183.029C330.88 184.036 331.686 184.841 332.692 184.841C333.699 184.841 334.504 184.036 334.504 183.029C334.504 182.022 333.699 181.217 332.692 181.217C331.686 181.217 330.88 182.022 330.88 183.029Z" fill="#020046"/>
<path d="M348.295 170.847C348.295 171.854 349.1 172.66 350.107 172.66C351.113 172.66 351.919 171.854 351.919 170.847C351.919 169.841 351.113 169.035 350.107 169.035C349.1 169.035 348.295 169.841 348.295 170.847Z" fill="#020046"/>
<path d="M360.375 182.526C360.375 183.532 361.18 184.338 362.186 184.338C363.193 184.338 363.998 183.532 363.998 182.526C363.998 181.519 363.193 180.713 362.186 180.713C361.18 180.713 360.375 181.519 360.375 182.526Z" fill="#020046"/>
<path d="M344.571 196.218C344.571 197.225 345.376 198.03 346.383 198.03C347.389 198.03 348.195 197.225 348.195 196.218C348.195 195.211 347.389 194.406 346.383 194.406C345.477 194.406 344.571 195.211 344.571 196.218Z" fill="#020046"/>
<path d="M366.012 209.406C366.012 210.413 366.817 211.219 367.824 211.219C368.83 211.219 369.636 210.413 369.636 209.406C369.636 208.4 368.83 207.594 367.824 207.594C366.817 207.594 366.012 208.4 366.012 209.406Z" fill="#020046"/>
<path d="M350.913 219.675C350.913 220.682 351.718 221.488 352.725 221.488C353.731 221.488 354.536 220.682 354.536 219.675C354.536 218.669 353.731 217.863 352.725 217.863C351.718 217.863 350.913 218.669 350.913 219.675Z" fill="#020046"/>
<path d="M332.391 212.426C332.391 213.433 333.196 214.239 334.203 214.239C335.209 214.239 336.014 213.433 336.014 212.426C336.014 211.42 335.209 210.614 334.203 210.614C333.196 210.614 332.391 211.42 332.391 212.426Z" fill="#020046"/>
<path d="M322.123 198.433C322.123 199.44 322.928 200.245 323.934 200.245C324.941 200.245 325.746 199.44 325.746 198.433C325.746 197.426 324.941 196.621 323.934 196.621C323.029 196.621 322.123 197.426 322.123 198.433Z" fill="#020046"/>
<path d="M328.767 235.985C328.767 236.992 329.572 237.797 330.579 237.797C331.585 237.797 332.39 236.992 332.39 235.985C332.39 234.978 331.585 234.173 330.579 234.173C329.572 234.173 328.767 234.978 328.767 235.985Z" fill="#020046"/>
<path d="M339.437 250.784C339.437 251.791 340.242 252.597 341.249 252.597C342.256 252.597 343.061 251.791 343.061 250.784C343.061 249.778 342.256 248.972 341.249 248.972C340.242 248.972 339.437 249.778 339.437 250.784Z" fill="#020046"/>
<path d="M361.482 237.797C361.482 238.804 362.287 239.609 363.294 239.609C364.3 239.609 365.106 238.804 365.106 237.797C365.106 236.79 364.3 235.985 363.294 235.985C362.388 235.985 361.482 236.79 361.482 237.797Z" fill="#020046"/>
<path d="M370.844 251.489C370.844 252.496 371.649 253.301 372.656 253.301C373.662 253.301 374.468 252.496 374.468 251.489C374.468 250.482 373.662 249.677 372.656 249.677C371.649 249.677 370.844 250.482 370.844 251.489Z" fill="#020046"/>
<path d="M388.561 240.616C388.561 241.623 389.366 242.428 390.372 242.428C391.379 242.428 392.184 241.623 392.184 240.616C392.184 239.609 391.379 238.804 390.372 238.804C389.366 238.804 388.561 239.609 388.561 240.616Z" fill="#020046"/>
<path d="M308.533 211.218C308.533 212.225 309.338 213.031 310.345 213.031C311.352 213.031 312.157 212.225 312.157 211.218C312.157 210.212 311.352 209.406 310.345 209.406C309.338 209.406 308.533 210.212 308.533 211.218Z" fill="#020046"/>
<path d="M381.011 136.013L383.729 138.228C383.427 138.933 382.823 139.436 382.017 139.436C381.011 139.436 380.206 138.631 380.206 137.624C380.206 136.919 380.508 136.416 381.011 136.013Z" fill="#020046"/>
<path d="M343.866 122.221H346.181C373.763 126.852 389.869 135.409 410.102 178.398C410.102 178.398 425.604 211.118 405.371 227.226C385.138 243.334 368.73 225.112 366.112 210.011C363.998 198.03 366.616 186.05 371.649 182.526C376.682 178.902 391.882 175.781 398.727 185.848C404.666 194.506 406.378 201.352 406.378 201.352" stroke="#020046" stroke-width="0.75" stroke-miterlimit="10" stroke-linecap="round" stroke-linejoin="round"/>
<path d="M312.157 166.015C312.157 166.015 306.923 197.426 305.916 222.092V224.206C305.916 224.206 302.594 252.597 304.809 253.503C308.131 254.711 388.862 257.731 394.399 256.12C397.721 255.114 395.808 232.663 395.808 232.663" stroke="#020046" stroke-width="0.75" stroke-miterlimit="10" stroke-linecap="round" stroke-linejoin="round"/>
<path d="M365.307 146.887C365.307 146.887 362.086 143.464 359.972 144.269C357.858 145.075 358.059 148.8 361.985 152.525C365.911 156.149 365.307 146.887 365.307 146.887Z" fill="white" stroke="#020046" stroke-width="0.75" stroke-miterlimit="10" stroke-linecap="round" stroke-linejoin="round"/>
<path d="M383.024 139.537L380.709 172.056H376.883H366.314H362.388L360.073 139.537H383.024Z" fill="white" stroke="#020046" stroke-width="0.75" stroke-miterlimit="10"/>
<path d="M359.972 138.53H383.527V136.316C383.527 135.309 382.722 134.503 381.715 134.503H361.784C360.777 134.503 359.972 135.309 359.972 136.316V138.53Z" fill="#651FFF"/>
<path d="M358.965 141.148H384.433C385.037 141.148 385.44 140.645 385.44 140.141V139.135C385.44 138.531 384.936 138.128 384.433 138.128H358.965C358.361 138.128 357.959 138.631 357.959 139.135V140.141C357.858 140.746 358.361 141.148 358.965 141.148Z" fill="#651FFF"/>
<path d="M386.849 157.256C386.849 157.256 386.95 147.491 384.936 145.477C382.923 143.464 374.769 141.752 373.058 143.363C371.347 145.075 372.656 147.994 375.776 148.397C378.897 148.8 379.098 149.202 379.098 149.202L380.205 155.042L386.849 157.256Z" fill="white" stroke="#020046" stroke-width="0.75" stroke-miterlimit="10" stroke-linecap="round" stroke-linejoin="round"/>
<path d="M363.395 157.156C363.697 156.049 364.2 155.042 367.622 155.042V154.941C364.603 153.431 365.106 151.115 366.213 150.008C368.025 148.297 375.172 149.706 378.796 150.411C382.319 151.115 387.151 155.948 387.151 155.948C387.151 155.948 389.869 157.861 390.976 173.164V180.815L376.984 183.231C376.984 183.231 376.179 177.996 375.071 176.184C373.964 174.372 373.461 171.251 373.36 169.841L373.26 169.741C367.824 168.13 363.898 165.411 364.301 163.096C364.602 161.787 365.106 161.082 367.018 161.082C363.898 159.774 362.992 158.566 363.395 157.156Z" fill="white"/>
<path d="M367.623 154.941C364.603 153.431 365.106 151.115 366.213 150.008C368.025 148.297 375.172 149.706 378.796 150.411C382.319 151.115 387.151 155.948 387.151 155.948C387.151 155.948 389.869 157.861 390.976 173.164V180.815L376.984 183.231C376.984 183.231 376.179 177.996 375.072 176.184C373.964 174.372 373.461 171.251 373.36 169.841" stroke="#020046" stroke-width="0.75" stroke-miterlimit="10" stroke-linecap="round" stroke-linejoin="round"/>
<path d="M381.917 158.968C381.917 158.968 378.695 156.451 371.649 155.445C364.502 154.337 363.797 155.847 363.395 157.257C362.992 158.666 363.898 159.874 367.018 161.183" stroke="#020046" stroke-width="0.75" stroke-miterlimit="10" stroke-linecap="round" stroke-linejoin="round"/>
<path d="M379.803 164.506C379.803 164.506 373.662 162.291 370.34 161.485C365.71 160.378 364.804 161.083 364.401 162.995C363.797 165.814 370.139 169.338 377.487 170.647" stroke="#020046" stroke-width="0.75" stroke-miterlimit="10" stroke-linecap="round" stroke-linejoin="round"/>
<path d="M367.824 187.963C367.924 187.157 368.025 186.352 368.126 185.546C368.528 182.627 371.146 180.311 374.367 179.908L388.661 178.096C392.084 177.694 395.405 179.506 396.513 182.526L396.915 183.734L367.824 187.963Z" fill="#020046" stroke="#020046" stroke-width="0.75" stroke-miterlimit="10"/>
<path d="M312.559 190.077L341.349 135.711L343.362 121.617C343.362 121.617 318.599 124.838 304.506 138.732C290.413 152.625 268.57 177.492 271.388 200.245C273.2 215.044 282.36 222.796 297.259 218.971C312.257 215.145 315.68 203.366 314.774 197.325C314.573 195.916 313.868 193.097 312.559 190.077Z" fill="white"/>
<path d="M343.463 121.617C343.463 121.617 318.7 124.838 304.607 138.732C290.514 152.625 268.67 177.492 271.489 200.245C273.301 215.044 282.461 222.796 297.359 218.971C312.358 215.145 315.78 203.366 314.875 197.325C314.673 196.017 313.969 193.198 312.66 190.177" stroke="#020046" stroke-width="0.75" stroke-miterlimit="10" stroke-linecap="round" stroke-linejoin="round"/>
<path d="M330.478 151.316C330.478 152.323 331.283 153.128 332.289 153.128C333.296 153.128 334.101 152.323 334.101 151.316C334.101 150.309 333.296 149.504 332.289 149.504C331.283 149.504 330.478 150.309 330.478 151.316Z" fill="#020046"/>
<path d="M327.76 132.792C327.76 133.798 328.565 134.604 329.572 134.604C330.578 134.604 331.384 133.798 331.384 132.792C331.384 131.785 330.578 130.979 329.572 130.979C328.565 130.979 327.76 131.785 327.76 132.792Z" fill="#020046"/>
<path d="M309.842 135.107C309.842 136.114 310.647 136.919 311.654 136.919C312.66 136.919 313.466 136.114 313.466 135.107C313.466 134.1 312.66 133.295 311.654 133.295C310.647 133.295 309.842 134.1 309.842 135.107Z" fill="#020046"/>
<path d="M315.881 149.202C315.881 150.209 316.687 151.014 317.693 151.014C318.7 151.014 319.505 150.209 319.505 149.202C319.505 148.195 318.7 147.39 317.693 147.39C316.687 147.39 315.881 148.195 315.881 149.202Z" fill="#020046"/>
<path d="M300.379 152.826C300.379 153.833 301.185 154.639 302.191 154.639C303.198 154.639 304.003 153.833 304.003 152.826C304.003 151.82 303.198 151.014 302.191 151.014C301.185 151.014 300.379 151.82 300.379 152.826Z" fill="#020046"/>
<path d="M300.379 171.15C300.379 172.156 301.185 172.962 302.191 172.962C303.198 172.962 304.003 172.156 304.003 171.15C304.003 170.143 303.198 169.337 302.191 169.337C301.185 169.337 300.379 170.143 300.379 171.15Z" fill="#020046"/>
<path d="M283.971 168.431C283.971 169.438 284.776 170.243 285.783 170.243C286.79 170.243 287.595 169.438 287.595 168.431C287.595 167.425 286.79 166.619 285.783 166.619C284.776 166.619 283.971 167.425 283.971 168.431Z" fill="#020046"/>
<path d="M294.44 179.002C294.44 178.902 294.44 178.801 294.44 178.801C294.44 177.794 293.635 176.989 292.628 176.989C291.622 176.989 290.816 177.794 290.816 178.801C290.816 179.204 290.917 179.606 291.219 179.908L294.44 179.002Z" fill="#020046"/>
<path d="M319.304 162.088C319.304 162.088 324.438 153.632 327.357 153.934C330.276 154.236 329.974 157.055 328.062 162.088C326.048 167.022 322.525 167.827 320.713 167.324C318.901 166.82 317.391 164.907 319.304 162.088Z" fill="white" stroke="#020046" stroke-width="0.75" stroke-miterlimit="10" stroke-linecap="round" stroke-linejoin="round"/>
<path d="M325.143 213.031C325.143 210.614 325.142 207.896 325.042 205.279C324.74 197.828 325.344 129.268 325.042 127.758C324.74 126.449 324.74 125.14 321.519 126.55C318.398 128.06 317.291 129.671 317.291 129.671C317.693 133.094 318.801 159.773 318.7 163.901C318.599 172.357 317.291 215.447 317.291 215.447L317.391 215.548C302.091 218.064 281.857 210.212 281.857 210.212L266.355 261.758C266.355 261.758 263.637 269.913 274.006 275.651C286.186 282.296 317.593 286.021 320.915 279.98C323.431 275.349 324.539 238.3 324.941 221.387C325.042 221.487 325.143 217.762 325.143 213.031Z" fill="white" stroke="#020046" stroke-width="0.75" stroke-miterlimit="10" stroke-linecap="round" stroke-linejoin="round"/>
<path d="M286.287 261.355C286.287 261.355 279.441 231.958 284.475 229.038C289.508 226.119 295.648 242.63 295.648 242.63C295.648 242.63 306.922 225.313 314.17 229.038C321.418 232.663 304.507 254.509 298.668 260.147C291.118 267.295 287.796 268.705 286.287 261.355Z" fill="#00E5FF"/>
<path d="M275.214 178.197C272.093 185.445 270.483 192.996 271.389 200.245C273.2 215.044 282.361 222.796 297.259 218.971C312.258 215.145 315.68 203.366 314.774 197.325C314.271 194.104 310.949 182.727 303.399 179.405C295.85 176.083 283.871 183.13 283.871 183.13L275.214 178.197Z" fill="white"/>
<path d="M276.12 176.083C272.395 184.036 270.382 192.191 271.388 200.245C273.2 215.044 282.361 222.796 297.259 218.971C312.258 215.145 315.68 203.366 314.774 197.325C314.271 194.104 310.949 182.727 303.399 179.405C295.85 176.083 283.871 183.13 283.871 183.13" stroke="#020046" stroke-width="0.75" stroke-miterlimit="10" stroke-linecap="round" stroke-linejoin="round"/>
<path d="M282.159 190.681C282.159 191.688 282.965 192.493 283.971 192.493C284.978 192.493 285.783 191.688 285.783 190.681C285.783 189.674 284.978 188.869 283.971 188.869C282.965 188.869 282.159 189.674 282.159 190.681Z" fill="#020046"/>
<path d="M273.603 182.526C273.603 183.533 274.408 184.338 275.415 184.338C276.422 184.338 277.227 183.533 277.227 182.526C277.227 181.519 276.422 180.714 275.415 180.714C274.408 180.714 273.603 181.519 273.603 182.526Z" fill="#020046"/>
<path d="M281.354 202.46C281.354 203.467 282.159 204.272 283.166 204.272C284.173 204.272 284.978 203.467 284.978 202.46C284.978 201.453 284.173 200.648 283.166 200.648C282.159 200.648 281.354 201.453 281.354 202.46Z" fill="#020046"/>
<path d="M281.857 214.843C281.857 215.85 282.663 216.655 283.669 216.655C284.676 216.655 285.481 215.85 285.481 214.843C285.481 213.836 284.676 213.031 283.669 213.031C282.663 213.031 281.857 213.836 281.857 214.843Z" fill="#020046"/>
<path d="M294.038 209.406C294.038 210.413 294.843 211.219 295.85 211.219C296.856 211.219 297.661 210.413 297.661 209.406C297.661 208.4 296.856 207.594 295.85 207.594C294.843 207.594 294.038 208.4 294.038 209.406Z" fill="#020046"/>
<path d="M271.288 199.742C271.388 199.742 271.59 199.843 271.69 199.843C272.697 199.843 273.502 199.037 273.502 198.03C273.502 197.024 272.697 196.218 271.69 196.218C271.489 196.218 271.288 196.218 271.086 196.319C271.086 197.527 271.187 198.634 271.288 199.742Z" fill="#020046"/>
<path d="M298.366 218.568C298.265 217.662 297.46 216.958 296.554 216.958C295.548 216.958 294.742 217.763 294.742 218.77C294.742 218.971 294.742 219.172 294.843 219.374C295.648 219.273 296.453 219.072 297.259 218.87C297.661 218.87 298.064 218.669 298.366 218.568Z" fill="#020046"/>
<path d="M309.238 212.427C308.936 212.024 308.433 211.722 307.829 211.722C306.822 211.722 306.017 212.528 306.017 213.534C306.017 214.038 306.218 214.44 306.52 214.742C307.527 214.038 308.433 213.232 309.238 212.427Z" fill="#020046"/>
<path d="M304.507 180.915C301.588 180.009 293.333 178.902 291.119 187.056C288.904 195.211 293.434 202.158 300.178 205.682C307.023 209.306 315.68 206.185 314.07 196.017C312.56 186.05 309.439 182.526 304.507 180.915Z" fill="#020046"/>
<path d="M332.591 173.364L332.692 173.465C333.296 172.357 334.101 170.243 332.994 168.733C332.893 168.531 332.591 168.229 332.289 168.028C332.491 167.625 333.799 164.907 332.289 163.095C332.088 162.793 331.585 162.592 330.981 162.491C331.081 161.887 331.081 161.383 330.981 160.779C329.773 156.35 320.713 157.759 313.767 160.175C306.822 162.592 304.406 179.606 304.406 179.606C304.406 179.606 297.057 182.626 295.95 187.257C294.843 191.586 300.077 201.453 306.419 200.446C310.848 199.741 311.855 199.238 312.962 198.231C313.767 197.526 314.875 196.62 316.183 194.506C319.203 189.573 319.102 184.338 321.518 180.814C324.035 177.19 325.847 178.599 329.269 178.7C331.182 178.8 333.699 176.988 332.893 174.27C332.994 173.867 332.893 173.565 332.591 173.364Z" fill="white"/>
<path d="M319.707 162.995C319.707 162.995 330.578 160.981 332.39 162.995C334.101 165.008 332.39 168.028 332.39 168.028" stroke="#020046" stroke-width="0.75" stroke-miterlimit="10" stroke-linecap="round" stroke-linejoin="round"/>
<path d="M320.311 167.223C320.311 167.223 331.585 166.518 333.095 168.632C334.101 170.142 333.296 172.256 332.793 173.364" stroke="#020046" stroke-width="0.75" stroke-miterlimit="10" stroke-linecap="round" stroke-linejoin="round"/>
<path d="M321.015 173.062C321.015 173.062 332.289 171.351 333.095 174.169C333.9 176.988 331.383 178.7 329.471 178.599C326.048 178.499 324.236 177.089 321.72 180.713C319.304 184.237 317.794 200.043 307.023 200.446C299.977 200.647 296.051 192.291 296.252 187.861C296.453 183.23 304.506 179.505 304.506 179.505C304.506 179.505 306.922 162.491 313.868 160.075C320.814 157.659 329.874 156.249 331.081 160.679C331.182 161.283 331.182 161.786 331.081 162.39" stroke="#020046" stroke-width="0.75" stroke-miterlimit="10" stroke-linecap="round" stroke-linejoin="round"/>
<path d="M334.504 113.563C334.504 113.563 327.055 110.039 324.337 103.495C321.619 96.9511 322.223 83.0578 326.25 77.7219C330.276 72.3861 339.638 70.1712 345.074 72.5874C345.074 72.5874 353.429 71.48 358.261 73.8962C366.817 78.2253 365.508 94.1322 363.193 103.596C360.979 112.455 346.483 116.18 346.483 116.18L334.504 113.563Z" fill="white" stroke="#020046" stroke-width="0.75" stroke-miterlimit="10" stroke-linecap="round" stroke-linejoin="round"/>
<path d="M369.483 123.993C375.024 121.68 377.641 115.313 375.328 109.771C373.015 104.23 366.649 101.613 361.108 103.926C355.567 106.239 352.951 112.606 355.263 118.148C357.576 123.689 363.943 126.306 369.483 123.993Z" fill="white" stroke="#020046" stroke-width="0.75" stroke-miterlimit="10"/>
<path d="M366.314 103.092C366.314 103.092 374.971 102.589 377.085 109.938" stroke="#020046" stroke-width="0.75" stroke-miterlimit="10" stroke-linecap="round" stroke-linejoin="round"/>
<path d="M357.053 124.738C357.053 128.362 351.517 131.383 344.772 131.383C338.028 131.383 332.491 128.463 332.491 124.738C332.491 121.114 338.028 118.093 344.772 118.093C351.517 118.093 357.053 121.013 357.053 124.738Z" fill="#020046" stroke="#020046" stroke-width="0.75" stroke-miterlimit="10"/>
<path d="M344.873 127.557C340.444 127.657 336.82 124.637 336.719 120.711L336.518 113.059C336.417 109.938 339.336 107.421 342.859 107.421H345.98C349.503 107.421 352.523 109.938 352.624 113.059L352.825 120.409C352.825 124.234 349.302 127.456 344.873 127.557Z" fill="white" stroke="#020046" stroke-width="0.75" stroke-miterlimit="10"/>
<path d="M321.116 102.287C321.116 104.904 323.129 107.019 325.747 107.019C328.364 107.019 330.478 105.005 330.478 102.388C330.478 99.77 328.465 97.6558 325.847 97.6558C323.23 97.6558 321.116 99.6693 321.116 102.287Z" fill="white" stroke="#020046" stroke-width="0.75" stroke-miterlimit="10"/>
<path d="M327.961 102.992C327.961 102.891 327.961 102.79 327.961 102.69C327.961 102.589 327.961 102.488 327.961 102.388C327.961 102.287 327.961 102.388 327.961 102.388V102.287C327.961 102.186 327.961 102.186 327.961 102.086C327.961 101.985 327.861 101.784 327.861 101.683C327.861 101.582 327.861 101.784 327.861 101.683V101.582C327.861 101.482 327.76 101.381 327.76 101.381C327.76 101.381 327.76 101.28 327.659 101.28C327.559 101.18 327.659 101.28 327.659 101.28C327.559 101.18 327.559 101.18 327.458 101.079L327.357 100.978C327.257 100.877 327.357 100.978 327.357 100.978C327.357 100.978 327.357 100.978 327.257 100.978C327.156 100.877 327.055 100.877 326.955 100.877C326.955 100.877 326.955 100.877 326.854 100.877C326.854 100.877 326.854 100.877 326.753 100.877C326.653 100.877 326.653 100.877 326.552 100.777C326.451 100.777 326.351 100.676 326.149 100.676C326.049 100.676 326.149 100.676 326.149 100.676H326.049C325.948 100.676 325.948 100.676 325.847 100.676C325.646 100.676 325.545 100.676 325.344 100.676C325.143 100.676 324.941 100.475 324.941 100.273C324.941 100.072 325.143 99.9714 325.344 99.8707C326.351 99.7701 327.458 99.9714 328.062 100.877C328.465 101.381 328.666 102.086 328.666 102.69C328.666 102.79 328.666 102.992 328.666 103.092C328.666 103.294 328.565 103.495 328.263 103.495C328.163 103.294 327.961 103.193 327.961 102.992Z" fill="#020046"/>
<path d="M367.22 101.985C367.22 104.602 365.106 106.616 362.489 106.616C359.872 106.616 357.858 104.502 357.858 101.884C357.858 99.2665 359.972 97.2529 362.59 97.2529C365.106 97.2529 367.22 99.3671 367.22 101.985Z" fill="white" stroke="#020046" stroke-width="0.75" stroke-miterlimit="10"/>
<path d="M359.569 102.488C359.469 101.28 360.073 99.9714 361.18 99.5687C361.784 99.2667 362.388 99.2667 363.093 99.3673C363.294 99.3673 363.395 99.6694 363.395 99.77C363.294 99.9714 363.193 100.072 362.992 100.072C362.489 99.9714 362.086 100.072 361.683 100.173C361.683 100.173 361.482 100.273 361.583 100.173C361.583 100.173 361.482 100.173 361.482 100.273C361.381 100.273 361.281 100.374 361.281 100.475C361.18 100.575 361.281 100.475 361.281 100.475L361.18 100.575C361.079 100.676 361.079 100.676 360.979 100.777C360.979 100.777 361.079 100.676 360.979 100.777C360.979 100.777 360.979 100.877 360.878 100.877C360.878 100.978 360.777 100.978 360.777 101.079V101.18C360.677 101.28 360.777 101.18 360.777 101.18C360.777 101.28 360.677 101.28 360.677 101.381C360.677 101.482 360.576 101.683 360.576 101.784C360.576 101.884 360.576 101.884 360.576 101.985C360.576 101.985 360.576 102.086 360.576 101.985V102.086C360.576 102.186 360.576 102.287 360.576 102.488C360.375 102.992 359.67 102.992 359.569 102.488Z" fill="#020046"/>
<path d="M359.066 103.193C359.167 110.24 353.429 116.08 346.383 116.08H342.255C335.209 116.18 329.371 110.442 329.371 103.394L329.169 89.7023C329.069 82.655 334.806 76.8158 341.853 76.8158H345.98C353.026 76.7151 358.865 82.4536 358.865 89.501L359.066 103.193Z" fill="white" stroke="#020046" stroke-width="0.75" stroke-miterlimit="10"/>
<path d="M347.691 105.307C347.49 106.717 346.282 107.925 344.772 107.925C343.262 107.925 342.054 106.817 341.853 105.408L347.691 105.307Z" stroke="#020046" stroke-width="0.75" stroke-miterlimit="10" stroke-linecap="round" stroke-linejoin="round"/>
<path d="M336.216 96.2467C336.216 97.1527 335.41 97.9582 334.504 97.9582C333.598 97.9582 332.793 97.1527 332.793 96.2467C332.793 95.3406 333.598 94.5352 334.504 94.5352C335.511 94.5352 336.216 95.3406 336.216 96.2467Z" fill="#020046"/>
<path d="M354.436 95.8438C354.436 96.7499 353.63 97.5553 352.724 97.5553C351.818 97.5553 351.013 96.7499 351.013 95.8438C351.013 94.9377 351.818 94.1323 352.724 94.1323C353.731 94.1323 354.436 94.9377 354.436 95.8438Z" fill="#020046"/>
<path d="M350.913 92.1187C350.913 92.1187 353.329 91.5146 355.241 92.8234" stroke="#020046" stroke-miterlimit="10" stroke-linecap="round" stroke-linejoin="round"/>
<path d="M336.115 92.4209C336.115 92.4209 333.699 91.9175 331.887 93.327" stroke="#020046" stroke-miterlimit="10" stroke-linecap="round" stroke-linejoin="round"/>
<path d="M343.967 93.4272L342.558 100.273L345.074 100.173" stroke="#020046" stroke-width="0.75" stroke-miterlimit="10" stroke-linecap="round" stroke-linejoin="round"/>
<path d="M328.062 96.2463C328.062 96.2463 338.33 93.9308 341.752 88.9976C341.752 88.9976 340.947 90.8098 339.135 92.4206C338.43 93.0247 336.316 94.5348 336.316 94.5348C336.316 94.5348 341.35 94.1321 344.973 88.9976L345.175 88.4942C345.175 88.4942 343.061 92.4206 340.142 93.9308C340.142 93.9308 343.161 93.9308 347.188 90.1051C352.322 85.2726 351.215 75.6077 351.215 75.6077L338.531 74.8022L331.686 78.6279L329.069 84.5679L328.062 96.2463Z" fill="white"/>
<path d="M360.174 94.5349C360.174 94.5349 359.972 83.0578 358.563 80.9436C358.16 80.3395 357.858 79.9368 357.456 79.7355C355.845 78.1246 352.926 75.7084 349.805 75.9098C345.275 76.2118 351.315 82.1517 351.315 82.1517C352.121 83.5612 356.55 91.716 360.174 94.5349Z" fill="white"/>
<path d="M328.062 96.2461C328.062 96.2461 338.33 93.9305 341.752 88.9974C341.752 88.9974 340.947 90.8096 339.135 92.4204C338.43 93.0244 336.316 94.5346 336.316 94.5346C336.316 94.5346 341.35 94.1319 344.973 88.9974L345.175 88.494C345.175 88.494 343.061 92.4204 340.142 93.9305C340.142 93.9305 343.161 93.9305 347.188 90.1048C352.322 85.2724 351.215 75.6074 351.215 75.6074" stroke="#020046" stroke-width="0.5" stroke-miterlimit="10" stroke-linecap="round" stroke-linejoin="round"/>
<path d="M351.114 81.7485C351.114 81.7485 356.147 91.4135 360.073 94.5344" stroke="#020046" stroke-width="0.5" stroke-miterlimit="10" stroke-linecap="round" stroke-linejoin="round"/>
</g>
</g>
<defs>
<clipPath id="clip0_558_1151">
<rect width="592" height="387" fill="white"/>
</clipPath>
</defs>
</svg>
